<svg width="16" height="16" viewBox="0 0 16 16" fill="none" xmlns="http://www.w3.org/2000/svg">
<rect width="16" height="16" fill="white"/>
<path fill-rule="evenodd" clip-rule="evenodd" d="M2.82357 2.85406C3.11559 2.5603 3.59047 2.55889 3.88423 2.85091L13.1728 12.0846C13.4665 12.3766 13.4679 12.8515 13.1759 13.1452C12.8839 13.439 12.409 13.4404 12.1152 13.1484L2.82671 3.91471C2.53295 3.62269 2.53155 3.14782 2.82357 2.85406Z" fill="#1C1C1E"/>
<path fill-rule="evenodd" clip-rule="evenodd" d="M13.1764 2.85406C12.8844 2.5603 12.4095 2.55889 12.1158 2.85091L2.82725 12.0846C2.53349 12.3766 2.53208 12.8515 2.8241 13.1452C3.11613 13.439 3.591 13.4404 3.88476 13.1484L13.1733 3.91471C13.467 3.62269 13.4685 3.14782 13.1764 2.85406Z" fill="#1C1C1E"/>
</svg>
