<svg width="21" height="20" viewBox="0 0 21 20" fill="none" xmlns="http://www.w3.org/2000/svg">
<rect width="20" height="20" transform="translate(0.988281 -0.00195312)" fill="white"/>
<path fill-rule="evenodd" clip-rule="evenodd" d="M3.7895 2.79888C4.03358 2.5548 4.42931 2.5548 4.67339 2.79888L18.1872 16.3127C18.4313 16.5567 18.4313 16.9525 18.1872 17.1966C17.9431 17.4406 17.5474 17.4406 17.3033 17.1966L3.7895 3.68276C3.54543 3.43868 3.54543 3.04295 3.7895 2.79888Z" fill="#1C1C1E"/>
<path fill-rule="evenodd" clip-rule="evenodd" d="M18.187 2.79903C18.431 3.0431 18.431 3.43883 18.187 3.68291L4.67317 17.1967C4.42909 17.4408 4.03336 17.4408 3.78929 17.1967C3.54521 16.9526 3.54521 16.5569 3.78929 16.3128L17.3031 2.79903C17.5472 2.55495 17.9429 2.55495 18.187 2.79903Z" fill="#1C1C1E"/>
</svg>
