<svg width="20" height="20" viewBox="0 0 20 20" fill="none" xmlns="http://www.w3.org/2000/svg">
<path opacity="0.2" fill-rule="evenodd" clip-rule="evenodd" d="M10 19C14.9706 19 19 14.9706 19 10C19 5.02944 14.9706 1 10 1C5.02944 1 1 5.02944 1 10C1 14.9706 5.02944 19 10 19ZM10 20C15.5228 20 20 15.5228 20 10C20 4.47715 15.5228 0 10 0C4.47715 0 0 4.47715 0 10C0 15.5228 4.47715 20 10 20Z" fill="#1C1C1E"/>
<path d="M9.05656 11.7824C9.06311 10.1527 9.5016 9.65535 10.287 9.1645C10.8498 8.798 11.2883 8.39223 11.2817 7.79013C11.2883 7.13566 10.7778 6.71026 10.143 6.70372C9.53432 6.71026 8.96494 7.11603 8.93876 7.88175H7.08008C7.1128 6.04271 8.48063 5.15918 10.1561 5.15918C11.982 5.15918 13.2713 6.10815 13.2713 7.72468C13.2713 8.80455 12.715 9.48519 11.8577 10.0022C11.1181 10.4407 10.7909 10.8661 10.7843 11.7824V11.9263H9.05656V11.7824ZM8.86022 13.785C8.84713 13.1829 9.34452 12.6921 9.95972 12.6986C10.5422 12.6921 11.0461 13.1829 11.0461 13.785C11.0461 14.3937 10.5422 14.8845 9.95972 14.8845C9.34452 14.8845 8.84713 14.3937 8.86022 13.785Z" fill="#999999"/>
</svg>
