<svg width="17" height="17" viewBox="0 0 17 17" fill="none" xmlns="http://www.w3.org/2000/svg">
<rect width="16" height="16" transform="translate(0.0195312 0.485352)" fill="white"/>
<path fill-rule="evenodd" clip-rule="evenodd" d="M8.01953 16.4854C12.4378 16.4854 16.0195 12.9036 16.0195 8.48535C16.0195 4.06707 12.4378 0.485352 8.01953 0.485352C3.60125 0.485352 0.0195312 4.06707 0.0195312 8.48535C0.0195312 12.9036 3.60125 16.4854 8.01953 16.4854ZM11.4108 6.10342C11.6841 5.83005 11.6841 5.38684 11.4108 5.11347C11.1374 4.84011 10.6942 4.84011 10.4208 5.11347L8.11596 7.41833L5.81111 5.11348C5.53774 4.84011 5.09452 4.84011 4.82116 5.11348C4.54779 5.38684 4.54779 5.83006 4.82116 6.10343L7.12602 8.40828L4.82099 10.7133C4.54763 10.9867 4.54763 11.4299 4.82099 11.7033C5.09436 11.9766 5.53757 11.9766 5.81094 11.7033L8.11596 9.39823L10.421 11.7033C10.6944 11.9766 11.1376 11.9766 11.4109 11.7033C11.6843 11.4299 11.6843 10.9867 11.4109 10.7133L9.10591 8.40828L11.4108 6.10342Z" fill="#D9D9D9"/>
</svg>
