<svg width="660" height="629" xmlns="http://www.w3.org/2000/svg" xmlns:xlink="http://www.w3.org/1999/xlink"><svg width="40" height="40" fill="none" viewBox="-4 -4 40 40" id="allview_reserve" x="540" y="523" xmlns="http://www.w3.org/2000/svg"><path d="M27 20a1 1 0 00-1 1v4a1 1 0 01-1 1h-3.998a1 1 0 000 2H25a2.999 2.999 0 003-3v-4a1 1 0 00-1-1zm-15.996 6H7.005a1 1 0 01-1-1v-4a1 1 0 10-2 0v4a3 3 0 003 3h4a1 1 0 000-2zM25 4h-3.998a1 1 0 000 2H25a1 1 0 011 1v4a1 1 0 102 0V7a3 3 0 00-3-3zM5.006 12a1 1 0 001-1V7a1 1 0 011-1h3.998a1 1 0 000-2H7.005a2.999 2.999 0 00-3 3v4a1 1 0 001 1zm10.997 2.996H7.415l2.3-2.288a1.003 1.003 0 10-1.42-1.418l-4 3.996a1 1 0 000 1.418l4 3.996a1 1 0 001.42 0 .999.999 0 000-1.418l-2.3-2.288h8.588a1 1 0 100-1.998z" fill="#fff"/></svg><svg width="24" height="24" fill="none" viewBox="-4 -4 24 24" id="arrow" x="548" y="577" xmlns="http://www.w3.org/2000/svg"><path d="M6 12.499a.469.469 0 01-.35-.15.48.48 0 010-.7l3.64-3.65-3.64-3.65a.495.495 0 11.7-.7l4 4a.48.48 0 010 .7l-4 4a.47.47 0 01-.35.15z" fill="#242428"/></svg><svg width="24" height="24" fill="none" viewBox="-4 -4 24 24" id="arrow_disabled" x="572" y="577" xmlns="http://www.w3.org/2000/svg"><path d="M6 12.5a.47.47 0 01-.35-.15.481.481 0 010-.7L9.29 8 5.65 4.35a.495.495 0 11.7-.7l4 4a.481.481 0 010 .7l-4 4a.47.47 0 01-.35.15z" fill="#A7ACB6"/></svg><svg width="24" height="24" fill="none" viewBox="-4 -4 24 24" id="arrow_gray" x="596" y="577" xmlns="http://www.w3.org/2000/svg"><path d="M6 12.5a.469.469 0 01-.35-.15.48.48 0 010-.7L9.29 8 5.65 4.35a.495.495 0 11.7-.7l4 4a.481.481 0 010 .7l-4 4a.47.47 0 01-.35.15z" fill="#62676C"/></svg><svg width="24" height="24" fill="none" viewBox="-4 -4 24 24" id="arrow_gray_light" x="636" xmlns="http://www.w3.org/2000/svg"><path d="M6 12.5a.47.47 0 01-.35-.15.481.481 0 010-.7L9.29 8 5.65 4.35a.495.495 0 11.7-.7l4 4a.481.481 0 010 .7l-4 4a.47.47 0 01-.35.15z" fill="#878D95"/></svg><svg width="32" height="32" fill="none" viewBox="-4 -4 32 32" id="arrow_medium" x="184" y="171" xmlns="http://www.w3.org/2000/svg"><path d="M8 3.5a.47.47 0 01.35.15l8 8.002a.48.48 0 010 .7l-8 8.003a.495.495 0 11-.7-.7l7.64-7.653L7.65 4.35a.48.48 0 010-.7A.47.47 0 018 3.5z" fill="#242428"/></svg><svg width="32" height="32" fill="none" viewBox="-4 -4 32 32" id="arrow_medium_disabled" x="108" y="410" xmlns="http://www.w3.org/2000/svg"><path d="M8 3.5a.47.47 0 01.35.15l8 8.002a.48.48 0 010 .7l-8 8.003a.495.495 0 11-.7-.7l7.64-7.653L7.65 4.35a.48.48 0 010-.7A.47.47 0 018 3.5z" fill="#CFD0D7"/></svg><svg width="32" height="32" fill="none" viewBox="-4 -4 32 32" id="arrow_medium_disabled_double" x="140" y="410" xmlns="http://www.w3.org/2000/svg"><path d="M5.501 3.5a.47.47 0 01.35.15l8 8.002a.48.48 0 010 .7l-8 8.003a.495.495 0 11-.7-.7l7.64-7.653-7.64-7.652a.48.48 0 010-.7.47.47 0 01.35-.15z" fill="#CFD0D7"/><path d="M9.501 3.5a.47.47 0 01.35.15l8 8.002a.48.48 0 010 .7l-8 8.003a.495.495 0 11-.7-.7l7.64-7.653-7.64-7.652a.48.48 0 010-.7.47.47 0 01.35-.15z" fill="#CFD0D7"/></svg><svg width="32" height="32" fill="none" viewBox="-4 -4 32 32" id="arrow_medium_double" x="172" y="410" xmlns="http://www.w3.org/2000/svg"><path d="M5.501 3.5a.47.47 0 01.35.15l8 8.002a.48.48 0 010 .7l-8 8.003a.495.495 0 11-.7-.7l7.64-7.653-7.64-7.652a.48.48 0 010-.7.47.47 0 01.35-.15z" fill="#242428"/><path d="M9.501 3.5a.47.47 0 01.35.15l8 8.002a.48.48 0 010 .7l-8 8.003a.495.495 0 11-.7-.7l7.64-7.653-7.64-7.652a.48.48 0 010-.7.47.47 0 01.35-.15z" fill="#242428"/></svg><svg width="32" height="32" fill="none" viewBox="-4 -4 32 32" id="arrow_medium_gray" x="204" y="410" xmlns="http://www.w3.org/2000/svg"><path d="M8 3.5a.47.47 0 01.35.15l8 8.002a.48.48 0 010 .7l-8 8.003a.495.495 0 11-.7-.7l7.64-7.653L7.65 4.35a.48.48 0 010-.7A.47.47 0 018 3.5z" fill="#62676c"/></svg><svg width="24" height="24" fill="none" viewBox="-4 -4 24 24" id="arrow_orange" x="636" y="24" xmlns="http://www.w3.org/2000/svg"><path d="M6 12.5a.47.47 0 01-.35-.15.481.481 0 010-.7L9.29 8 5.65 4.35a.495.495 0 11.7-.7l4 4a.481.481 0 010 .7l-4 4a.47.47 0 01-.35.15z" fill="#F56C36"/></svg><svg width="24" height="24" fill="none" viewBox="-4 -4 24 24" id="arrow_red" x="636" y="48" xmlns="http://www.w3.org/2000/svg"><path d="M6.002 12.499a.469.469 0 01-.35-.15.48.48 0 010-.7l3.64-3.65-3.64-3.65a.495.495 0 11.7-.7l4 4a.478.478 0 010 .7l-4 4a.47.47 0 01-.35.15z" fill="#FA2828"/></svg><svg width="24" height="24" fill="none" viewBox="-4 -4 24 24" id="arrow_white" x="636" y="72" xmlns="http://www.w3.org/2000/svg"><path d="M6 12.5a.47.47 0 01-.35-.15.481.481 0 010-.7L9.29 8 5.65 4.35a.495.495 0 11.7-.7l4 4a.481.481 0 010 .7l-4 4a.47.47 0 01-.35.15z" fill="#fff"/></svg><svg width="54" height="54" fill="none" viewBox="-4 -4 54 54" id="calender" x="480" y="443" xmlns="http://www.w3.org/2000/svg"><path d="M39.5 7H34V4.5a1.5 1.5 0 10-3 0V7H15V4.5a1.5 1.5 0 10-3 0V7H6.5A3.5 3.5 0 003 10.5v29A3.5 3.5 0 006.5 43h33a3.5 3.5 0 003.5-3.5v-29A3.5 3.5 0 0039.5 7zm-33 3h33a.51.51 0 01.5.5V15H6v-4.5a.51.51 0 01.5-.5zm33 30h-33a.51.51 0 01-.5-.5V18h34v21.5a.51.51 0 01-.5.5z" fill="#62676C"/><path d="M14.5 30a1.5 1.5 0 00-1.5 1.5v2a1.5 1.5 0 103 0v-2a1.5 1.5 0 00-1.5-1.5zm8.5 0a1.5 1.5 0 00-1.5 1.5v2a1.5 1.5 0 103 0v-2A1.5 1.5 0 0023 30zm8.5 0a1.5 1.5 0 00-1.5 1.5v2a1.5 1.5 0 103 0v-2a1.5 1.5 0 00-1.5-1.5zm-17-8a1.5 1.5 0 00-1.5 1.5v2a1.5 1.5 0 103 0v-2a1.5 1.5 0 00-1.5-1.5zm8.5 0a1.5 1.5 0 00-1.5 1.5v2a1.5 1.5 0 103 0v-2A1.5 1.5 0 0023 22zm8.5 0a1.5 1.5 0 00-1.5 1.5v2a1.5 1.5 0 103 0v-2a1.5 1.5 0 00-1.5-1.5z" fill="#62676C"/></svg><svg width="52" height="52" fill="none" viewBox="-4 -4 52 52" id="cancel_reserve_seat" x="582" y="486" xmlns="http://www.w3.org/2000/svg"><path d="M32 20V6c0-1.1-.9-2-2-2H14c-1.1 0-2 .9-2 2v14" stroke="#878D95" stroke-width="2" stroke-miterlimit="10"/><path d="M12 38h20" stroke="#878D95" stroke-width="2" stroke-miterlimit="10" stroke-linecap="round"/><path d="M22 38v-6" stroke="#878D95" stroke-width="2" stroke-miterlimit="10"/><path d="M19 11h6" stroke="#878D95" stroke-width="2" stroke-miterlimit="10" stroke-linecap="round"/><path d="M29.898 22v3.5H14.112V22c0-1.66-1.35-3-3.02-3h-.07A3.007 3.007 0 008 22v8c0 1.1.9 2 2.01 2h23.98c1.11 0 2.01-.9 2.01-2v-8c0-1.66-1.35-3-3.021-3h-.07a3.005 3.005 0 00-3.011 3z" stroke="#878D95" stroke-width="2" stroke-miterlimit="10"/></svg><svg width="52" height="52" fill="none" viewBox="-4 -4 52 52" id="cancel_reserve_seat_selected" y="577" xmlns="http://www.w3.org/2000/svg"><path d="M32 20V6c0-1.1-.9-2-2-2H14c-1.1 0-2 .9-2 2v14" stroke="#FF8700" stroke-width="2" stroke-miterlimit="10"/><path d="M12 38h20" stroke="#FF8700" stroke-width="2" stroke-miterlimit="10" stroke-linecap="round"/><path d="M22 38v-6" stroke="#FF8700" stroke-width="2" stroke-miterlimit="10"/><path d="M19 11h6" stroke="#FF8700" stroke-width="2" stroke-miterlimit="10" stroke-linecap="round"/><path d="M29.898 22v3.5H14.112V22c0-1.66-1.35-3-3.02-3h-.07A3.007 3.007 0 008 22v8c0 1.1.9 2 2.01 2h23.98c1.11 0 2.01-.9 2.01-2v-8c0-1.66-1.35-3-3.021-3h-.07a3.005 3.005 0 00-3.011 3z" stroke="#FF8700" stroke-width="2" stroke-miterlimit="10"/></svg><svg width="52" height="52" fill="none" viewBox="-4 -4 52 52" id="cancel_reserve_zone" x="52" y="577" xmlns="http://www.w3.org/2000/svg"><path d="M6 12a2 2 0 100-4 2 2 0 000 4zm16 0a2 2 0 100-4 2 2 0 000 4zm16 0a2 2 0 100-4 2 2 0 000 4z" fill="#878D95"/><path fill-rule="evenodd" clip-rule="evenodd" d="M7 14a1 1 0 10-2 0v20H3a1 1 0 100 2h6a1 1 0 100-2H7V19.657A8.983 8.983 0 0014 23a8.983 8.983 0 007-3.343V34h-2a1 1 0 100 2h6a1 1 0 100-2h-2V19.657A8.983 8.983 0 0030 23a8.983 8.983 0 007-3.343V34h-2a1 1 0 100 2h6a1 1 0 100-2h-2V14a1 1 0 10-2 0 7 7 0 11-14 0 1 1 0 10-2 0 7 7 0 11-14 0z" fill="#878D95"/></svg><svg width="52" height="52" fill="none" viewBox="-4 -4 52 52" id="cancel_reserve_zone_selected" x="104" y="577" xmlns="http://www.w3.org/2000/svg"><path d="M6 12a2 2 0 100-4 2 2 0 000 4zm16 0a2 2 0 100-4 2 2 0 000 4zm16 0a2 2 0 100-4 2 2 0 000 4z" fill="#FF8700"/><path fill-rule="evenodd" clip-rule="evenodd" d="M7 14a1 1 0 10-2 0v20H3a1 1 0 100 2h6a1 1 0 100-2H7V19.657A8.983 8.983 0 0014 23a8.983 8.983 0 007-3.343V34h-2a1 1 0 100 2h6a1 1 0 100-2h-2V19.657A8.983 8.983 0 0030 23a8.983 8.983 0 007-3.343V34h-2a1 1 0 100 2h6a1 1 0 100-2h-2V14a1 1 0 10-2 0 7 7 0 11-14 0 1 1 0 10-2 0 7 7 0 11-14 0z" fill="#FF8700"/></svg><svg width="32" height="32" fill="none" viewBox="-4 -4 32 32" id="casting_calender" x="236" y="410" xmlns="http://www.w3.org/2000/svg"><path fill-rule="evenodd" clip-rule="evenodd" d="M7.5 3a.5.5 0 01.5.5V5h8V3.5a.5.5 0 011 0V5h2.5A1.5 1.5 0 0121 6.5v13a1.5 1.5 0 01-1.5 1.5h-15A1.5 1.5 0 013 19.5v-13A1.5 1.5 0 014.5 5H7V3.5a.5.5 0 01.5-.5zm9 3h-12a.5.5 0 00-.5.5V9h16V6.5a.5.5 0 00-.5-.5h-3zM4 10v9.5a.5.5 0 00.5.5h15a.5.5 0 00.5-.5V10H4z" fill="#A7ACB6"/></svg><svg width="32" height="32" fill="none" viewBox="-4 -4 32 32" id="casting_calender_on" x="268" y="410" xmlns="http://www.w3.org/2000/svg"><path fill-rule="evenodd" clip-rule="evenodd" d="M7.5 3a.5.5 0 01.5.5V5h8V3.5a.5.5 0 011 0V5h2.5A1.5 1.5 0 0121 6.5v13a1.5 1.5 0 01-1.5 1.5h-15A1.5 1.5 0 013 19.5v-13A1.5 1.5 0 014.5 5H7V3.5a.5.5 0 01.5-.5zm9 3h-12a.5.5 0 00-.5.5V9h16V6.5a.5.5 0 00-.5-.5h-3zM4 10v9.5a.5.5 0 00.5.5h15a.5.5 0 00.5-.5V10H4z" fill="#242428"/></svg><svg width="32" height="32" fill="none" viewBox="-4 -4 32 32" id="check" x="300" y="410" xmlns="http://www.w3.org/2000/svg"><path fill-rule="evenodd" clip-rule="evenodd" d="M21.7 6.286a1 1 0 01.014 1.415l-10.8 11a1 1 0 01-1.428 0l-7.2-7.334a1 1 0 011.428-1.4l6.486 6.606L20.286 6.299a1 1 0 011.415-.013z" fill="#fff"/></svg><svg width="24" height="24" fill="none" viewBox="-4 -4 24 24" id="checked" x="636" y="96" xmlns="http://www.w3.org/2000/svg"><path d="M3 7l4 4 6-6" stroke="#242428" stroke-miterlimit="10" stroke-linecap="round" stroke-linejoin="round"/></svg><svg width="54" height="54" fill="none" viewBox="-4 -4 54 54" id="clock" y="523" xmlns="http://www.w3.org/2000/svg"><path fill-rule="evenodd" clip-rule="evenodd" d="M13.786 2.728a1.5 1.5 0 01-.514 2.058l-5 3a1.5 1.5 0 01-1.544-2.572l5-3a1.5 1.5 0 012.058.514zM14.7 39.4a1.5 1.5 0 00.187-.328A17.925 17.925 0 0023 41c2.919 0 5.675-.694 8.113-1.928a1.5 1.5 0 00.187.328l3 4a1.5 1.5 0 102.4-1.8l-3-4a1.536 1.536 0 00-.063-.078C38.102 34.247 41 28.962 41 23c0-9.94-8.059-18-18-18S5 13.06 5 23c0 5.962 2.898 11.247 7.363 14.522a1.536 1.536 0 00-.063.078l-3 4a1.5 1.5 0 102.4 1.8l3-4zM33.272 2.214a1.5 1.5 0 10-1.544 2.572l5 3a1.5 1.5 0 101.544-2.572l-5-3zM23 8C14.716 8 8 14.716 8 23c0 8.285 6.716 15 15 15 8.284 0 15-6.715 15-15 0-8.284-6.716-15-15-15zm1.5 4.5a1.5 1.5 0 00-3 0V23c0 .398.158.78.44 1.06l5.5 5.5a1.5 1.5 0 002.12-2.12l-5.06-5.061V12.5z" fill="#62676C"/></svg><svg width="32" height="32" fill="none" viewBox="-4 -4 32 32" id="clock_bg_black" x="332" y="410" xmlns="http://www.w3.org/2000/svg"><circle cx="12" cy="12" r="12" fill="#242428"/><path d="M12 7a6 6 0 100 12 6 6 0 000-12zm0 11a5 5 0 110-9.999A5 5 0 0112 18zM9 6h6a.5.5 0 100-1H9a.5.5 0 000 1z" fill="#fff"/><path d="M13.9 10.39l-1.26 1.26a1.52 1.52 0 10.71.71l1.26-1.26a.502.502 0 10-.71-.71z" fill="#fff"/></svg><svg width="32" height="32" fill="none" viewBox="-4 -4 32 32" id="clock_bg_orange" x="364" y="410" xmlns="http://www.w3.org/2000/svg"><circle cx="12" cy="12" r="12" fill="#FF8700"/><path d="M12 7a6 6 0 100 12 6 6 0 000-12zm0 11a5 5 0 110-9.999A5 5 0 0112 18zM9 6h6a.5.5 0 100-1H9a.5.5 0 000 1z" fill="#fff"/><path d="M13.9 10.39l-1.26 1.26a1.52 1.52 0 10.71.71l1.26-1.26a.502.502 0 10-.71-.71z" fill="#fff"/></svg><svg width="24" height="24" fill="none" viewBox="-4 -4 24 24" id="clock_black" x="636" y="120" xmlns="http://www.w3.org/2000/svg"><path d="M8 2a6 6 0 110 12A6 6 0 018 2zm0-1a7 7 0 100 14A7 7 0 008 1z" fill="#242428"/><path d="M7.75 3.75a.5.5 0 01.5.5v5h-.5a.5.5 0 01-.5-.5v-4.5a.5.5 0 01.5-.5z" fill="#242428"/><path d="M11.25 8.75a.5.5 0 01-.5.5h-3a.5.5 0 01-.5-.5v-.5h3.5a.5.5 0 01.5.5z" fill="#242428"/></svg><svg width="24" height="24" fill="none" viewBox="-4 -4 24 24" id="close" x="636" y="144" xmlns="http://www.w3.org/2000/svg"><path d="M13 3L3 13m10 0L3 3" stroke="#242428" stroke-linecap="round" stroke-linejoin="round"/></svg><svg width="32" height="32" fill="none" viewBox="-4 -4 32 32" id="close_gray" x="396" y="410" xmlns="http://www.w3.org/2000/svg"><path d="M12.71 11.995l6.64-6.65a.495.495 0 00-.7-.7L12 11.285l-6.65-6.64a.495.495 0 10-.7.7l6.64 6.65-6.64 6.65a.48.48 0 000 .7.48.48 0 00.7 0l6.65-6.64 6.65 6.64a.481.481 0 00.7 0 .481.481 0 000-.7l-6.64-6.65z" fill="#878D95"/></svg><svg width="24" height="24" fill="none" viewBox="-4 -4 24 24" id="close_gray_dark" x="636" y="168" xmlns="http://www.w3.org/2000/svg"><path d="M13 3L3 13m10 0L3 3" stroke="#878D95" stroke-linecap="round" stroke-linejoin="round"/></svg><svg width="32" height="32" fill="none" viewBox="-4 -4 32 32" id="close_white" x="428" y="410" xmlns="http://www.w3.org/2000/svg"><path d="M12.71 11.995l6.64-6.65a.495.495 0 00-.7-.7L12 11.285l-6.65-6.64a.495.495 0 10-.7.7l6.64 6.65-6.64 6.65a.48.48 0 000 .7.48.48 0 00.7 0l6.65-6.64 6.65 6.64a.481.481 0 00.7 0 .481.481 0 000-.7l-6.64-6.65z" fill="#fff"/></svg><svg width="220" height="31" fill="none" viewBox="-4 -4 220 31" id="coming_soon_text" xmlns="http://www.w3.org/2000/svg"><path d="M14.967 8.172h4.453C18.834 3.294 15.143.496 10.25.496 4.654.496.377 4.466.377 11.395c0 6.899 4.204 10.898 9.873 10.898 5.39 0 8.686-3.574 9.17-7.5l-4.453-.03c-.425 2.3-2.241 3.619-4.658 3.633-3.238-.014-5.45-2.431-5.45-7.002 0-4.467 2.183-6.987 5.479-7.001 2.476.014 4.277 1.435 4.629 3.779zm26.953 3.223c0-6.93-4.292-10.899-9.902-10.899-5.655 0-9.932 3.97-9.932 10.899 0 6.899 4.277 10.898 9.932 10.898 5.61 0 9.902-3.97 9.902-10.898zm-15.352 0c0-4.541 2.154-6.988 5.45-7.002 3.266.014 5.434 2.46 5.42 7.002.014 4.526-2.154 6.987-5.42 7.002-3.296-.015-5.45-2.476-5.45-7.002zM45.084.789V22h4.277V8.055h.176l5.537 13.857h2.93L63.54 8.113h.176V22h4.277V.79h-5.45l-5.888 14.384h-.234L50.533.789h-5.449zm30.879 0h-4.395V22h4.395V.79zm21.27 0h-4.366v13.477h-.205L83.404.789h-3.867V22h4.395V8.523h.175L93.424 22h3.808V.79zm17.665 6.826h4.454c-.586-4.175-4.263-7.119-9.053-7.119-5.596 0-9.903 4.043-9.903 10.928 0 6.709 4.043 10.869 9.991 10.869 5.346 0 9.17-3.398 9.17-8.965v-2.637h-8.848v3.311h4.6c-.059 2.666-1.861 4.38-4.893 4.394-3.384-.014-5.537-2.548-5.537-7.03 0-4.454 2.226-6.959 5.508-6.973 2.314.014 3.911 1.23 4.511 3.222zm26.309-.761h4.219c-.059-3.75-3.15-6.358-7.852-6.358-4.643 0-8.042 2.564-8.027 6.416 0 3.106 2.197 4.893 5.771 5.772l2.315.556c2.314.572 3.633 1.245 3.633 2.695 0 1.583-1.495 2.667-3.809 2.667-2.344 0-4.043-1.084-4.189-3.223h-4.278c.132 4.556 3.399 6.929 8.526 6.914 5.171.015 8.188-2.476 8.203-6.357-.015-3.53-2.725-5.376-6.358-6.211l-1.904-.47c-1.831-.41-3.413-1.098-3.398-2.636.014-1.406 1.259-2.431 3.486-2.431 2.153 0 3.486.981 3.662 2.666zm26.807 4.54c0-6.928-4.292-10.898-9.903-10.898-5.654 0-9.931 3.97-9.931 10.899 0 6.899 4.277 10.898 9.931 10.898 5.611 0 9.903-3.97 9.903-10.898zm-15.352 0c0-4.54 2.153-6.987 5.449-7.001 3.267.014 5.435 2.46 5.42 7.002.015 4.526-2.153 6.987-5.42 7.002-3.296-.015-5.449-2.476-5.449-7.002zm37.94 0c0-6.928-4.292-10.898-9.903-10.898-5.654 0-9.931 3.97-9.931 10.899 0 6.899 4.277 10.898 9.931 10.898 5.611 0 9.903-3.97 9.903-10.898zm-15.352 0c0-4.54 2.153-6.987 5.449-7.001 3.267.014 5.435 2.46 5.42 7.002.015 4.526-2.153 6.987-5.42 7.002-3.296-.015-5.449-2.476-5.449-7.002zM211.461.79h-4.365v13.477h-.205L197.633.789h-3.867V22h4.394V8.523h.176L207.652 22h3.809V.79z" fill="#A7ACB6"/></svg><svg width="80" height="80" fill="none" viewBox="-4 -4 80 80" id="company" x="494" y="56" xmlns="http://www.w3.org/2000/svg"><path fill-rule="evenodd" clip-rule="evenodd" d="M43 51.5a8.5 8.5 0 1117 0 8.5 8.5 0 01-17 0zM51.5 41C45.701 41 41 45.701 41 51.5S45.701 62 51.5 62c2.54 0 4.868-.901 6.684-2.402l4.109 4.11a1 1 0 001.414-1.415l-4.109-4.109A10.458 10.458 0 0062 51.5C62 45.701 57.299 41 51.5 41z" fill="#A7ACB6"/><path fill-rule="evenodd" clip-rule="evenodd" d="M28 8h20a3 3 0 013 3v27a1 1 0 01-2 0V11a1 1 0 00-1-1H28a1 1 0 00-1 1v51h17a1 1 0 010 2H9a1 1 0 01-1-1V24a3 3 0 013-3h14V11a3 3 0 013-3zM10.293 23.293A1 1 0 0010 24v38h5v-8a1 1 0 011-1h5a1 1 0 011 1v8h3V23H11a1 1 0 00-.707.293zM17 55v7h3v-7h-3zm16.707-38.707A1 1 0 0134 17v2a1 1 0 01-2 0v-2a1 1 0 011.707-.707zM39 17a1 1 0 00-2 0v2a1 1 0 002 0v-2zm4.707-.707A1 1 0 0144 17v2a1 1 0 01-2 0v-2a1 1 0 011.707-.707zM34 24a1 1 0 00-2 0v2a1 1 0 002 0v-2zm4.707-.707A1 1 0 0139 24v2a1 1 0 01-2 0v-2a1 1 0 011.707-.707zM44 24a1 1 0 00-2 0v2a1 1 0 002 0v-2zm-11.707 6.293A1 1 0 0134 31v2a1 1 0 01-2 0v-2a1 1 0 01.293-.707zM38 30a1 1 0 00-1 1v2a1 1 0 002 0v-2a1 1 0 00-1-1zm4.293.293A1 1 0 0144 31v2a1 1 0 01-2 0v-2a1 1 0 01.293-.707zM16 33a1 1 0 001-1v-2a1 1 0 00-2 0v2a1 1 0 001 1zm5.707-.293A1 1 0 0120 32v-2a1 1 0 012 0v2a1 1 0 01-.293.707zM16 40a1 1 0 001-1v-2a1 1 0 00-2 0v2a1 1 0 001 1zm5.707-.293A1 1 0 0120 39v-2a1 1 0 012 0v2a1 1 0 01-.293.707zM16 47a1 1 0 001-1v-2a1 1 0 00-2 0v2a1 1 0 001 1zm5.707-.293A1 1 0 0120 46v-2a1 1 0 012 0v2a1 1 0 01-.293.707z" fill="#A7ACB6"/></svg><svg width="40" height="40" fill="none" viewBox="-4 -4 40 40" id="complet_smart" x="156" y="577" xmlns="http://www.w3.org/2000/svg"><path d="M13 12.5a1 1 0 01-1-1v-2a1 1 0 012 0v2a1 1 0 01-1 1zm0 5.5a1 1 0 01-1-1v-2a1 1 0 012 0v2a1 1 0 01-1 1zm0 5.5a1 1 0 01-1-1v-2a1 1 0 012 0v2a1 1 0 01-1 1z" fill="#242428"/><path d="M16 27H6a3 3 0 01-3-3v-4.55a1 1 0 01.86-1 2.48 2.48 0 000-4.92 1 1 0 01-.86-1V8a3 3 0 013-3h20a3 3 0 013 3v8a1 1 0 11-2 0V8a1 1 0 00-1-1H6a1 1 0 00-1 1v3.77a4.48 4.48 0 010 8.46V24a1 1 0 001 1h10a1 1 0 010 2z" fill="#242428"/><path fill-rule="evenodd" clip-rule="evenodd" d="M28.707 19.293a1 1 0 010 1.414l-6 6a1 1 0 01-1.414 0l-4-4a1 1 0 011.414-1.414L22 24.586l5.293-5.293a1 1 0 011.414 0z" fill="#242428"/></svg><svg width="32" height="32" fill="none" viewBox="-4 -4 32 32" id="double_mark" x="460" y="410" xmlns="http://www.w3.org/2000/svg"><path d="M17 20a4 4 0 00.51-7.95 12.48 12.48 0 013.2-6.34.999.999 0 00-1.21-1.57C15.79 6.28 13 11.38 13 16a4 4 0 004 4zM7 20a4 4 0 00.51-7.95 12.48 12.48 0 013.2-6.34.999.999 0 00-1.21-1.57C5.79 6.28 3 11.38 3 16a4 4 0 004 4z" fill="#242428"/></svg><svg width="54" height="54" fill="none" viewBox="-4 -4 54 54" id="double_mark_gray" x="54" y="523" xmlns="http://www.w3.org/2000/svg"><path d="M27.5 6h13a3 3 0 013 3v12.775a11.635 11.635 0 01-.4 3C42.1 28.672 38.5 37.84 28.3 40l-3.8-4.739s8.68-2.999 8.68-11.256H27.5a3 3 0 01-3-3V9a2.999 2.999 0 013-3zm-22 0h13a3 3 0 013 3v12.775a11.635 11.635 0 01-.4 3C20.1 28.672 16.5 37.84 6.3 40l-3.8-4.739s8.68-2.999 8.68-11.256H5.5a3 3 0 01-3-3V9a2.999 2.999 0 013-3z" fill="#62676C"/></svg><svg width="40" height="40" fill="none" viewBox="-4 -4 40 40" id="down_smart" x="196" y="577" xmlns="http://www.w3.org/2000/svg"><path fill-rule="evenodd" clip-rule="evenodd" d="M25 17a1 1 0 10-2 0v6.586l-2.293-2.293a1 1 0 00-1.414 1.414l4 4a1 1 0 001.414 0l4-4a1 1 0 00-1.414-1.414L25 23.586V17z" fill="#fff"/><path d="M13 12.5a1 1 0 01-1-1v-2a1 1 0 012 0v2a1 1 0 01-1 1zm0 5.5a1 1 0 01-1-1v-2a1 1 0 012 0v2a1 1 0 01-1 1zm0 5.5a1 1 0 01-1-1v-2a1 1 0 012 0v2a1 1 0 01-1 1z" fill="#fff"/><path d="M17 27H6a3 3 0 01-3-3v-4.55a1 1 0 01.86-1 2.48 2.48 0 000-4.92 1 1 0 01-.86-1V8a3 3 0 013-3h20a3 3 0 013 3v7a1 1 0 11-2 0V8a1 1 0 00-1-1H6a1 1 0 00-1 1v3.77a4.48 4.48 0 010 8.46V24a1 1 0 001 1h11a1 1 0 010 2z" fill="#fff"/></svg><svg width="40" height="40" fill="none" viewBox="-4 -4 40 40" id="error_smart" x="236" y="577" xmlns="http://www.w3.org/2000/svg"><path fill-rule="evenodd" clip-rule="evenodd" d="M28.707 19.707a1 1 0 00-1.414-1.414L24.5 21.086l-2.793-2.793a1 1 0 00-1.414 1.414l2.793 2.793-2.793 2.793a1 1 0 001.414 1.414l2.793-2.793 2.793 2.793a1 1 0 001.414-1.414L25.914 22.5l2.793-2.793z" fill="#A7ACB6"/><path d="M13 12.5a1 1 0 01-1-1v-2a1 1 0 012 0v2a1 1 0 01-1 1zm0 5.5a1 1 0 01-1-1v-2a1 1 0 012 0v2a1 1 0 01-1 1zm0 5.5a1 1 0 01-1-1v-2a1 1 0 012 0v2a1 1 0 01-1 1z" fill="#A7ACB6"/><path d="M17 27H6a3 3 0 01-3-3v-4.55a1 1 0 01.86-1 2.48 2.48 0 000-4.92 1 1 0 01-.86-1V8a3 3 0 013-3h20a3 3 0 013 3v7a1 1 0 11-2 0V8a1 1 0 00-1-1H6a1 1 0 00-1 1v3.77a4.48 4.48 0 010 8.46V24a1 1 0 001 1h11a1 1 0 010 2z" fill="#A7ACB6"/></svg><svg width="108" height="108" fill="none" viewBox="-4 -4 108 108" id="etc_call" x="386" xmlns="http://www.w3.org/2000/svg"><path d="M41.5 76h-7a1 1 0 010-2h7a1 1 0 010 2z" fill="#242428"/><path d="M59 10H17a3 3 0 00-3 3v65a3 3 0 003 3h42a3 3 0 003-3V13a3 3 0 00-3-3zM16 20h44v49H16V20zm1-8h42a1 1 0 011 1v5H16v-5a1 1 0 011-1zm42 67H17a1 1 0 01-1-1v-7h44v7a1 1 0 01-1 1z" fill="#242428"/><path d="M68 86c12.15 0 22-9.85 22-22s-9.85-22-22-22-22 9.85-22 22 9.85 22 22 22z" fill="#FA2828"/><path d="M75.43 76a19.203 19.203 0 01-3.77-.37 19.52 19.52 0 01-15.3-15.31c-.36-1.86-.45-3.764-.27-5.65a3 3 0 013-2.67h3.12a3 3 0 012.94 2.46 15.66 15.66 0 00.9 3.07 3 3 0 01-.58 3.14l-1.29 1.39.22.73a7.191 7.191 0 004.82 4.82l.7.21 1.25-1.24a2.94 2.94 0 013.24-.65c1.011.418 2.064.73 3.14.93A3 3 0 0180 69.8v3.12a3 3 0 01-2.67 3c-.63.08-1.27.08-1.9.08zM59.08 54a1 1 0 00-1 .87c-.16 1.693-.08 3.4.24 5.07a17.52 17.52 0 0013.73 13.73c1.672.327 3.383.412 5.08.25a1 1 0 00.87-1V69.8a1 1 0 00-.82-1 17.483 17.483 0 01-3.55-1.06 1 1 0 00-1.06.22l-1.24 1.24a2 2 0 01-2 .51l-.71-.22a9.17 9.17 0 01-6.16-6.16l-.21-.72a2 2 0 01.45-1.94l1.28-1.39a1 1 0 00.2-1 17.404 17.404 0 01-1-3.46 1 1 0 00-1-.83l-3.1.01z" fill="#fff"/></svg><svg width="108" height="108" fill="none" viewBox="-4 -4 108 108" id="etc_email" x="386" y="108" xmlns="http://www.w3.org/2000/svg"><path d="M77 14H9a3 3 0 00-3 3v47a3 3 0 003 3h68a3 3 0 003-3V17a3 3 0 00-3-3zM9 16h68a1 1 0 011 1v36H8V17a1 1 0 011-1zm68 49H9a1 1 0 01-1-1v-9h70v9a1 1 0 01-1 1zM63 77H23a1 1 0 010-2h40a1 1 0 010 2z" fill="#242428"/><path d="M72 86c12.15 0 22-9.85 22-22s-9.85-22-22-22-22 9.85-22 22 9.85 22 22 22z" fill="#FA2828"/><path d="M82 53H62a3 3 0 00-3 3v16a3 3 0 003 3h20a3 3 0 003-3V56a3 3 0 00-3-3zm-21 3a1 1 0 011-1h20a1 1 0 011 1v.46l-10.44 7a1 1 0 01-1.11 0l-10.45-7V56zm21 17H62a1 1 0 01-1-1V58.87l9.34 6.22a3 3 0 003.32 0L83 58.87V72a1 1 0 01-1 1z" fill="#fff"/></svg><svg width="108" height="108" fill="none" viewBox="-4 -4 108 108" id="etc_warnning" x="386" y="216" xmlns="http://www.w3.org/2000/svg"><path d="M90.95 89H9.05a2.996 2.996 0 01-2.637-4.515l40.95-71.912a2.997 2.997 0 015.274 0l40.95 71.912a2.996 2.996 0 01-2.637 4.514zM49.1 13.611L8.151 85.524a.999.999 0 000 .999.999.999 0 00.9.509H90.95a.999.999 0 00.899-.51 1 1 0 000-.998l-40.95-71.912a.998.998 0 00-1.798 0z" fill="#A7ACB6"/><path d="M51 43a1 1 0 10-2 0v22a1 1 0 102 0V43zm0 28a1 1 0 10-2 0v2a1 1 0 102 0v-2z" fill="#A7ACB6"/></svg><svg width="26" height="26" fill="none" viewBox="-4 -4 26 26" id="facebook" x="480" y="497" xmlns="http://www.w3.org/2000/svg"><path d="M7.102 17h3.046V8.935h2.125l.227-2.699h-2.352V4.695c0-.64.124-.888.688-.888h1.643V1h-2.104C8.106 1 7.082 2.062 7.082 4.076v2.182H5.5v2.735h1.582L7.102 17z" fill="#3076DF"/></svg><svg width="40" height="40" fill="none" viewBox="-4 -4 40 40" id="gcomplet_smart" x="276" y="577" xmlns="http://www.w3.org/2000/svg"><path d="M13 12.5a1 1 0 01-1-1v-2a1 1 0 012 0v2a1 1 0 01-1 1zm0 5.5a1 1 0 01-1-1v-2a1 1 0 012 0v2a1 1 0 01-1 1zm0 5.5a1 1 0 01-1-1v-2a1 1 0 012 0v2a1 1 0 01-1 1z" fill="#A7ACB6"/><path d="M16 27H6a3 3 0 01-3-3v-4.55a1 1 0 01.86-1 2.48 2.48 0 000-4.92 1 1 0 01-.86-1V8a3 3 0 013-3h20a3 3 0 013 3v8a1 1 0 11-2 0V8a1 1 0 00-1-1H6a1 1 0 00-1 1v3.77a4.48 4.48 0 010 8.46V24a1 1 0 001 1h10a1 1 0 010 2z" fill="#A7ACB6"/><path fill-rule="evenodd" clip-rule="evenodd" d="M28.707 19.293a1 1 0 010 1.414l-6 6a1 1 0 01-1.414 0l-4-4a1 1 0 011.414-1.414L22 24.586l5.293-5.293a1 1 0 011.414 0z" fill="#A7ACB6"/></svg><svg width="12" height="38" fill="none" viewBox="-4 -4 12 38" id="guide_dsc" x="582" y="538" xmlns="http://www.w3.org/2000/svg"><rect width="4" height="4" rx="2" fill="#CFD0D7"/><rect y="26" width="4" height="4" rx="2" fill="#CFD0D7"/><rect y="13" width="4" height="4" rx="2" fill="#CFD0D7"/></svg><svg width="40" height="40" fill="none" viewBox="-4 -4 40 40" id="heart" x="316" y="577" xmlns="http://www.w3.org/2000/svg"><path d="M26.273 6.407a7.387 7.387 0 00-9.573.77l-.71.699-.71-.7a7.386 7.386 0 00-9.572-.769 6.783 6.783 0 00-.64 10.299l4.347 4.265 5.876 5.744a1 1 0 001.399 0l5.875-5.744 4.347-4.235a6.783 6.783 0 00-.64-10.329z" fill="#ECEDF2"/></svg><svg width="40" height="40" fill="none" viewBox="-4 -4 40 40" id="heart_solid" x="356" y="577" xmlns="http://www.w3.org/2000/svg"><path d="M26.273 6.407a7.387 7.387 0 00-9.573.77l-.71.699-.71-.7a7.386 7.386 0 00-9.572-.769 6.783 6.783 0 00-.64 10.299l4.347 4.265 5.876 5.744a1 1 0 001.399 0l5.875-5.744 4.347-4.235a6.783 6.783 0 00-.64-10.329z" fill="#FA2828"/></svg><svg width="54" height="54" fill="none" viewBox="-4 -4 54 54" id="help_card" x="108" y="523" xmlns="http://www.w3.org/2000/svg"><path fill-rule="evenodd" clip-rule="evenodd" d="M5 11a1 1 0 011-1h34a1 1 0 011 1v3H5v-3zm0 5h36v3H5v-3zm-2 4v-9a3 3 0 013-3h34a3 3 0 013 3v24a3 3 0 01-3 3H6a3 3 0 01-3-3V20zm38 1v14a1 1 0 01-1 1H6a1 1 0 01-1-1V21h36zM30.707 32.707l6-6a1 1 0 00-1.414-1.414l-6 6a1 1 0 001.414 1.414zM31 26a1 1 0 10-2 0v.5a1 1 0 102 0V26zm6 5.5v.5a1 1 0 11-2 0v-.5a1 1 0 112 0z" fill="#242428"/></svg><svg width="54" height="54" fill="none" viewBox="-4 -4 54 54" id="help_check_inquiry" x="162" y="523" xmlns="http://www.w3.org/2000/svg"><path d="M36 4H10a3 3 0 00-3 3v32a3 3 0 003 3h26a3 3 0 003-3V7a3 3 0 00-3-3zm1 35a1 1 0 01-1 1H10a1 1 0 01-1-1V7a1 1 0 011-1h26a1 1 0 011 1v32z" fill="#242428"/><path d="M31 26H15a1 1 0 000 2h16a1 1 0 000-2zm-6 6H15a1 1 0 000 2h10a1 1 0 000-2z" fill="#242428"/><path fill-rule="evenodd" clip-rule="evenodd" d="M28.707 12.293a1 1 0 010 1.414l-6 6a1 1 0 01-1.414 0l-4-4a1 1 0 011.414-1.414L22 17.586l5.293-5.293a1 1 0 011.414 0z" fill="#242428"/></svg><svg width="80" height="80" fill="none" viewBox="-4 -4 80 80" id="help_consult" x="494" y="136" xmlns="http://www.w3.org/2000/svg"><path fill-rule="evenodd" clip-rule="evenodd" d="M13 64a2 2 0 01-1.87-2.57l2.61-8.52A27.66 27.66 0 018 36a28 28 0 1113.91 24.2l-8.15 3.63c-.24.105-.498.163-.76.17zm23-54a26 26 0 00-26 26 25.69 25.69 0 005.59 16.09 1 1 0 01.17.91L13 62l8.56-3.86a.999.999 0 01.93.06 26.002 26.002 0 0039.076-27.058A26 26 0 0036 10zm-3 22a1 1 0 01-1-1v-1a1 1 0 012 0v1a1 1 0 01-1 1zm0 5.5a1 1 0 01-1-1v-1a1 1 0 012 0v1a1 1 0 01-1 1zm-.707 5.208A1 1 0 0034 42v-1a1 1 0 00-2 0v1a1 1 0 00.293.707zm16.75-15.75a.06.06 0 00-.043-.017H23a.06.06 0 00-.06.06v4.46a4.94 4.94 0 010 9.08V45a.06.06 0 00.06.06h26a.06.06 0 00.06-.06v-4.46a4.94 4.94 0 010-9.08V27a.06.06 0 00-.018-.043zM23 25.001h26a2 2 0 012 2v5.53a.5.5 0 01-.41.5 3 3 0 000 5.94.5.5 0 01.41.5V45a2 2 0 01-2 2H23a2 2 0 01-2-2v-5.53a.5.5 0 01.41-.5 3 3 0 000-5.94.5.5 0 01-.41-.5V27a2 2 0 012-2z" fill="#242428"/></svg><svg width="54" height="54" fill="none" viewBox="-4 -4 54 54" id="help_delivery" x="216" y="523" xmlns="http://www.w3.org/2000/svg"><path d="M43.43 20.39l-3-4.15A3 3 0 0038 15h-4v-5a3 3 0 00-3-3H5a3 3 0 00-3 3v20a3 3 0 003 3h1.1a5 5 0 109.8 0h11.2a5 5 0 109.8 0H41a3 3 0 003-3v-7.85a3 3 0 00-.57-1.76zM11 37a3 3 0 110-6 3 3 0 010 6zm17-6H15a5 5 0 00-8 0H5a1 1 0 01-1-1V10a1 1 0 011-1h26a1 1 0 011 1v19a5 5 0 00-4 2zm4 6a3 3 0 110-5.999A3 3 0 0132 37zm10-7a1 1 0 01-1 1h-5a5 5 0 00-2-1.58V17h4a1 1 0 01.81.41l3 4.15a1 1 0 01.19.59V30z" fill="#242428"/><path d="M25 15H11a1 1 0 010-2h14a1 1 0 010 2z" fill="#242428"/></svg><svg width="54" height="54" fill="none" viewBox="-4 -4 54 54" id="help_discount" x="270" y="523" xmlns="http://www.w3.org/2000/svg"><path d="M41 10v7.34a6 6 0 000 11.32V36H5v-7.34a6 6 0 000-11.32V10h36zm0-2H5a2 2 0 00-2 2v8.11a1 1 0 00.83 1 4 4 0 010 7.82 1 1 0 00-.83 1V36a2 2 0 002 2h36a2 2 0 002-2v-8.11a1 1 0 00-.83-1 4 4 0 010-7.82 1 1 0 00.83-1V10a2 2 0 00-2-2z" fill="#242428"/><path fill-rule="evenodd" clip-rule="evenodd" d="M18 17a1 1 0 011 1v1a1 1 0 11-2 0v-1a1 1 0 011-1zm10.707 1.707l-10 10a1 1 0 01-1.414-1.414l10-10a1 1 0 011.414 1.414zM29 28v-1a1 1 0 10-2 0v1a1 1 0 102 0z" fill="#242428"/></svg><svg width="80" height="80" fill="none" viewBox="-4 -4 80 80" id="help_faq" x="494" y="216" xmlns="http://www.w3.org/2000/svg"><path fill-rule="evenodd" clip-rule="evenodd" d="M12.119 63.772A2 2 0 0013 64a2.05 2.05 0 00.76-.19l8.15-3.63a28.06 28.06 0 0025.5 1.38 1 1 0 10-.81-1.83 26.06 26.06 0 01-24.11-1.53 1 1 0 00-.93-.06L13 62l2.76-9a1 1 0 00-.17-.91 26.001 26.001 0 0130.652-39.995A26 26 0 0159.76 46.58a1.001 1.001 0 101.82.82A27.719 27.719 0 0064 36a28 28 0 10-56 0 27.66 27.66 0 005.74 16.91l-2.61 8.52a2 2 0 00.989 2.342zm23.174-22.065A1 1 0 0037 41v-1.88a1 1 0 01.42-.81l1.88-1.35a6.52 6.52 0 002.7-5.28v-.18a6.5 6.5 0 10-13 0v.5a1 1 0 002 0v-.5a4.5 4.5 0 119 0v.18a4.5 4.5 0 01-1.87 3.65l-1.88 1.36A3.001 3.001 0 0035 39.12V41a1 1 0 00.293.707zm0 5A1 1 0 0037 46v-1a1 1 0 00-2 0v1a1 1 0 00.293.707zM63 55h-6v-6a1 1 0 00-2 0v6h-6a1 1 0 000 2h6v6a1 1 0 002 0v-6h6a1 1 0 000-2z" fill="#242428"/></svg><svg width="54" height="54" fill="none" viewBox="-4 -4 54 54" id="help_find_info" x="324" y="523" xmlns="http://www.w3.org/2000/svg"><path fill-rule="evenodd" clip-rule="evenodd" d="M19 6a6 6 0 00-6 6v4h12v-4a6 6 0 00-6-6zm8 10v-4a8 8 0 00-16 0v4H7a3 3 0 00-3 3v20a3 3 0 003 3h18a1 1 0 100-2H7a1 1 0 01-1-1V19a1 1 0 011-1h24a1 1 0 011 1v2a1 1 0 102 0v-2a3 3 0 00-3-3h-4zm-8 9a1 1 0 011 1v5a1 1 0 11-2 0v-5a1 1 0 011-1zm7 7.5a6.5 6.5 0 1113 0 6.5 6.5 0 01-13 0zm6.5-8.5a8.5 8.5 0 105.262 15.176l2.53 2.531a1 1 0 001.415-1.414l-2.531-2.531A8.5 8.5 0 0032.5 24z" fill="#242428"/></svg><svg width="80" height="80" fill="none" viewBox="-4 -4 80 80" id="help_guide" x="494" y="296" xmlns="http://www.w3.org/2000/svg"><path fill-rule="evenodd" clip-rule="evenodd" d="M39 49c0-5.523 4.477-10 10-10s10 4.477 10 10-4.477 10-10 10-10-4.477-10-10zm10-12c-6.627 0-12 5.373-12 12s5.373 12 12 12c2.954 0 5.658-1.067 7.749-2.837l5.544 5.544a1 1 0 001.414-1.414l-5.544-5.544A11.952 11.952 0 0061 49c0-6.627-5.373-12-12-12z" fill="#242428"/><path fill-rule="evenodd" clip-rule="evenodd" d="M57 8H11a3 3 0 00-3 3v41a3 3 0 003 3h23a1 1 0 000-2H11a1 1 0 01-1-1V19h48v18a1 1 0 002 0V11a3 3 0 00-3-3zm-47 9v-6a1 1 0 011-1h46a1 1 0 011 1v6H10zm34 10H17a1 1 0 010-2h27a1 1 0 010 2zm-27 7h15a1 1 0 000-2H17a1 1 0 000 2zm37-19a1 1 0 01-1-1v-1a1 1 0 012 0v1a1 1 0 01-1 1zm-5.707-.293A1 1 0 0050 14v-1a1 1 0 00-2 0v1a1 1 0 00.293.707z" fill="#242428"/></svg><svg width="80" height="80" fill="none" viewBox="-4 -4 80 80" id="help_inquiry" y="443" xmlns="http://www.w3.org/2000/svg"><path fill-rule="evenodd" clip-rule="evenodd" d="M36 10a21 21 0 00-21 21v14a3 3 0 01-3 3H8a3 3 0 01-3-3V31a3 3 0 013-3h4c.414 0 .808.084 1.167.235a23 23 0 0145.666 0A2.991 2.991 0 0160 28h4a3 3 0 013 3v14a3 3 0 01-3 3h-4c-.55 0-1.065-.148-1.508-.406A21 21 0 0138 64h-4a1 1 0 110-2h4a19 19 0 0019-19V31a21 21 0 00-21-21zM12 30a1 1 0 011 1v14a1 1 0 01-1 1H8a1 1 0 01-1-1V31a1 1 0 011-1h4zm47 1v14a1 1 0 001 1h4a1 1 0 001-1V31a1 1 0 00-1-1h-4a1 1 0 00-1 1zm-28-3a1 1 0 10-2 0v2a1 1 0 102 0v-2zm11-1a1 1 0 011 1v2a1 1 0 11-2 0v-2a1 1 0 011-1zM27 37a1 1 0 10-2 0c0 5.17 5.148 9 11 9s11-3.83 11-9a1 1 0 10-2 0c0 3.67-3.812 7-9 7-5.188 0-9-3.33-9-7z" fill="#242428"/></svg><svg width="80" height="80" fill="none" viewBox="-4 -4 80 80" id="help_notice" x="80" y="443" xmlns="http://www.w3.org/2000/svg"><path fill-rule="evenodd" clip-rule="evenodd" d="M36.66 10.24L43.533 16H41.65a2 2 0 00-1.88 1.33 4 4 0 01-7.54 0A2 2 0 0030.35 16h-1.88l6.88-5.76a1 1 0 011.31 0zm-2.6-1.53L25.35 16H20a3 3 0 00-3 3v3.989l-7.93 6.64A3 3 0 008 31.93V61a3 3 0 003 3h50a3 3 0 003-3V31.93a3 3 0 00-1.07-2.3L55 22.998V19a3 3 0 00-3-3h-5.35l-8.71-7.29a3 3 0 00-3.88 0zm-23.7 22.46L17 25.61v9.954l-3.43-2.384a1 1 0 00-1.14 1.64l21.86 15.21a3 3 0 001.71.53 3 3 0 001.71-.56l21.86-15.18a.999.999 0 00-.376-1.839 1 1 0 00-.764.199L55 35.565v-9.956l6.64 5.56a1 1 0 01.36.76V61a1 1 0 01-1 1H11a1 1 0 01-1-1V31.93a1 1 0 01.36-.76zm25.07 17.21L19 36.955V19a1 1 0 011-1h10.34a6 6 0 0011.31 0H52a1 1 0 011 1v17.956L36.57 48.38a1 1 0 01-1.14 0zm-1.637-14.673A1 1 0 0034.5 34h3a1 1 0 000-2h-3a1 1 0 00-.707 1.707zM28 34h-3a1 1 0 010-2h3a1 1 0 110 2zm16 0h3a1 1 0 000-2h-3a1 1 0 100 2z" fill="#242428"/></svg><svg width="80" height="80" fill="none" viewBox="-4 -4 80 80" id="help_personal" x="160" y="443" xmlns="http://www.w3.org/2000/svg"><path fill-rule="evenodd" clip-rule="evenodd" d="M24 25a1 1 0 011 1v1a1 1 0 11-2 0v-1a1 1 0 011-1zm20 0a1 1 0 011 1v1a1 1 0 11-2 0v-1a1 1 0 011-1zm-9 1a1 1 0 10-2 0v1a1 1 0 102 0v-1z" fill="#242428"/><path fill-rule="evenodd" clip-rule="evenodd" d="M16.225 48.83c.252.11.524.168.8.17.5-.002.981-.19 1.349-.53l4.227-3.91c1.287.287 2.6.435 3.918.44h.731a12.521 12.521 0 0012.247 15h10.628l3.46 3.42A1.999 1.999 0 0056.993 62v-3.27a12.498 12.498 0 006.975-12.13 12.502 12.502 0 00-7.588-10.608 18.508 18.508 0 00-2.795-22.574A18.484 18.484 0 0040.51 8H26.519a18.472 18.472 0 00-10.727 3.406 18.49 18.49 0 00-7.054 20.256A18.49 18.49 0 0015.026 41v6a2 2 0 001.199 1.83zm39.011-11.143A18.493 18.493 0 0140.511 45H29.299a10.51 10.51 0 0010.198 13h10.998a1 1 0 01.7.29l3.8 3.71v-3.92a1 1 0 01.61-.91 10.508 10.508 0 006.372-10.147 10.51 10.51 0 00-6.74-9.336zM16.872 13.111A16.474 16.474 0 0126.509 10l14.022.03c4.373 0 8.568 1.738 11.66 4.833a16.505 16.505 0 010 23.334 16.485 16.485 0 01-11.66 4.833H26.539a16.724 16.724 0 01-3.998-.5.998.998 0 00-.91.23L17.015 47v-6.52a1 1 0 00-.4-.8 16.49 16.49 0 01-5.742-18.408 16.49 16.49 0 016-8.161z" fill="#242428"/></svg><svg width="54" height="54" fill="none" viewBox="-4 -4 54 54" id="help_refund" x="378" y="523" xmlns="http://www.w3.org/2000/svg"><path fill-rule="evenodd" clip-rule="evenodd" d="M30.59 7.784A17 17 0 0010.035 12H14a1 1 0 110 2H8a1 1 0 01-1-1V6a1 1 0 012 0v4.15a19 19 0 11-5 12.851 18.75 18.75 0 01.972-5.999 1 1 0 011.896.636A16.75 16.75 0 006 22.998V23A17 17 0 1030.59 7.784zm-15.906 8.267a1 1 0 011.265.633l1.992 5.978c.006.014.01.029.015.044L19 25.838l3.051-9.154a1 1 0 011.898 0L27 25.838l1.044-3.132.015-.044 1.992-5.978a1 1 0 011.898.632L30.387 22H33a1 1 0 110 2h-3.28l-1.771 5.316a1 1 0 01-1.898 0L23 20.162l-3.051 9.154a1 1 0 01-1.898 0L16.28 24H13a1 1 0 110-2h2.613l-1.562-4.684a1 1 0 01.633-1.265z" fill="#242428"/></svg><svg width="54" height="54" fill="none" viewBox="-4 -4 54 54" id="help_sport" x="432" y="523" xmlns="http://www.w3.org/2000/svg"><path d="M41 10v7.34a6 6 0 000 11.32V36H5v-7.34a6 6 0 000-11.32V10h36zm0-2H5a2 2 0 00-2 2v8.11a1 1 0 00.83 1 4 4 0 010 7.82 1 1 0 00-.83 1V36a2 2 0 002 2h36a2 2 0 002-2v-8.11a1 1 0 00-.83-1 4 4 0 010-7.82 1 1 0 00.83-1V10a2 2 0 00-2-2z" fill="#242428"/><path fill-rule="evenodd" clip-rule="evenodd" d="M23 32a9 9 0 110-17.999A9 9 0 0123 32zm0-16a7 7 0 00-4.041 1.285 8.997 8.997 0 010 11.43 7 7 0 008.083 0 9.001 9.001 0 010-11.43A7 7 0 0023 16zm-5.497 11.334a7 7 0 000-8.668 6.999 6.999 0 000 8.668zm11.317-.445a6.98 6.98 0 01-.323.445 7 7 0 010-8.668 7 7 0 01.323 8.223z" fill="#242428"/></svg><svg width="88" height="56" fill="none" viewBox="-4 -4 88 56" id="ico_coupon" x="494" xmlns="http://www.w3.org/2000/svg"><path fill-rule="evenodd" clip-rule="evenodd" d="M72 6v9.51a9 9 0 000 17V42H31.41l-1.61-1.92a3.002 3.002 0 00-4.6 0L23.59 42H8v-9.51a9 9 0 000-17V6h15.59l1.61 1.92a3 3 0 004.6 0L31.41 6H72zm1-3H30.47a1 1 0 00-.77.36L27.5 6l-2.2-2.64a1 1 0 00-.77-.36H7a2 2 0 00-2 2v12.08a1 1 0 00.85 1 6 6 0 010 11.88 1 1 0 00-.85 1V43a2 2 0 002 2h17.53a1 1 0 00.77-.36L27.5 42l2.2 2.64a1 1 0 00.77.36H73a2 2 0 002-2V30.92a1 1 0 00-.85-1 6 6 0 010-11.88 1 1 0 00.85-1V5a2 2 0 00-2-2zM53.44 17.44a1.5 1.5 0 012.12 2.12l-11 11a1.5 1.5 0 01-2.12-2.12l11-11zM56 28.5v1a1.5 1.5 0 01-3 0v-1a1.5 1.5 0 013 0zm-11-10a1.5 1.5 0 00-3 0v1a1.5 1.5 0 003 0v-1zm-16-5a1.5 1.5 0 00-3 0v3a1.5 1.5 0 003 0v-3zM27.5 21a1.5 1.5 0 011.5 1.5v3a1.5 1.5 0 01-3 0v-3a1.5 1.5 0 011.5-1.5zM29 31.5a1.5 1.5 0 00-3 0v3a1.5 1.5 0 003 0v-3z" fill="#A7ACB6"/></svg><svg width="166" height="166" fill="none" viewBox="-4 -4 166 166" id="illegal_img" x="220" xmlns="http://www.w3.org/2000/svg"><path d="M112 57v13.22a9.004 9.004 0 00-7.022 8.78A9 9 0 00112 87.78V101H46V87.26a8.5 8.5 0 000-16.52V57h66zm0-2H46a2 2 0 00-2 2v14.57a1 1 0 00.87 1 6.5 6.5 0 010 12.88 1 1 0 00-.87 1V101a2 2 0 002 2h66a2 2 0 002-2V86.93a1.001 1.001 0 00-.87-1 7 7 0 010-13.9 1.003 1.003 0 00.87-1V57a2 2 0 00-2-2z" fill="#242428"/><path d="M69 83a1 1 0 01-1-1v-6a1 1 0 012 0v6a1 1 0 01-1 1zm0 13a1 1 0 01-1-1v-6a1 1 0 012 0v6a1 1 0 01-1 1z" fill="#242428"/><path d="M79 10a69 69 0 1069 69 69.072 69.072 0 00-69-69zm61 69a60.708 60.708 0 01-15.16 40.18l-86-86A61 61 0 01140 79zM18 79a60.71 60.71 0 0115.16-40.18l86 86A61 61 0 0118 79z" fill="#FA2828"/></svg><svg width="24" height="24" fill="none" viewBox="-4 -4 24 24" id="info" x="636" y="192" xmlns="http://www.w3.org/2000/svg"><path d="M8 14a6 6 0 11-.01-12A6 6 0 018 14zm0 1a7 7 0 10-.1-14A7 7 0 008 15z" fill="#878D95"/><path d="M8.5 11.25a.5.5 0 10-1 0 .5.5 0 001 0zm-1-6.5v4a.5.5 0 101 0v-4a.5.5 0 10-1 0z" fill="#878D95"/></svg><svg width="108" height="108" fill="none" viewBox="-4 -4 108 108" id="info_big" y="335" xmlns="http://www.w3.org/2000/svg"><path d="M51 35a1 1 0 10-2 0v22a1 1 0 102 0V35zm0 28a1 1 0 10-2 0v2a1 1 0 102 0v-2z" fill="#A7ACB6"/><path d="M50 10a40 40 0 110 80 40 40 0 010-80zm0-2a42 42 0 100 84 42 42 0 000-84z" fill="#A7ACB6"/></svg><svg width="24" height="24" fill="none" viewBox="-4 -4 24 24" id="info_orange" x="636" y="216" xmlns="http://www.w3.org/2000/svg"><path d="M8.003 14a6 6 0 11-.01-12 6 6 0 01.01 12zm0 1a7 7 0 10-.1-14 7 7 0 00.1 14z" fill="#FF8E20"/><path d="M8.5 11.25a.5.5 0 10-1 0 .5.5 0 001 0zm-1-6.5v4a.5.5 0 101 0v-4a.5.5 0 10-1 0z" fill="#FF8E20"/></svg><svg width="24" height="24" fill="none" viewBox="-4 -4 24 24" id="int_dropdown" x="636" y="240" xmlns="http://www.w3.org/2000/svg"><path d="M8 11L4.536 6.5h6.928L8 11z" fill="#242428"/></svg><svg width="24" height="24" fill="none" viewBox="-4 -4 24 24" id="int_dropdown_darkgray" x="636" y="264" xmlns="http://www.w3.org/2000/svg"><path d="M8 11L4.536 6.5h6.928L8 11z" fill="#62676C"/></svg><svg width="24" height="24" fill="none" viewBox="-4 -4 24 24" id="int_dropdown_w" x="636" y="288" xmlns="http://www.w3.org/2000/svg"><path d="M8 11L4.536 6.5h6.928L8 11z" fill="#fff"/></svg><svg width="95" height="30" fill="none" viewBox="-4 -4 95 30" id="logo_nhn_ticketlink" x="108" y="380" xmlns="http://www.w3.org/2000/svg"><path d="M70.662 1.21L70.088 0l-.578 1.21-1.291.19.93.943-.217 1.325 1.156-.626 1.152.626-.218-1.325.935-.943-1.295-.19zm-.594 3.187h-1.06v5.157c0 1.362-.56 2.213-1.68 2.55-.737.212-1.923.318-3.574.318-.61 0-1.426-.02-1.905-.058a.264.264 0 01-.173-.088.281.281 0 01-.071-.185v-1.59h4.2c.689 0 1.033-.357 1.033-1.07V6.567c0-.711-.344-1.066-1.033-1.066h-6.247v1.767h5.167v1.547h-4.53a.696.696 0 00-.5.213.74.74 0 00-.207.515v2.616c0 .753.146 1.288.43 1.608.284.32.782.51 1.591.593.194.02.441.03.743.03a23.564 23.564 0 002.925-.2 9.791 9.791 0 002.424-.515 4.102 4.102 0 001.407-1.053v2.283c0 .068.112.623.112.623a1.867 1.867 0 00-.373-.177c-.45-.153-.92-.23-1.394-.229a4.01 4.01 0 00-2.763.934c-.334.319-.6.705-.782 1.135a3.498 3.498 0 000 2.726c.182.43.448.816.782 1.135a4 4 0 002.763.944 3.85 3.85 0 002.698-.944 3.14 3.14 0 00.806-1.127 3.23 3.23 0 00.25-1.376V5.467c0-.713-.346-1.07-1.04-1.07zM68.585 19.79a1.77 1.77 0 01-1.261.476 1.79 1.79 0 01-1.281-.476 1.725 1.725 0 01-.374-.565 1.769 1.769 0 01.374-1.905c.35-.327.809-.5 1.28-.483a1.76 1.76 0 011.262.483c.16.161.286.354.372.566a1.778 1.778 0 01-.372 1.904zm13.619-5.693c.417-.386.754-.855.99-1.38.196-.476.506-1.218.506-3.2v-2.93c0-.715-.33-1.07-1.037-1.07H73.96v1.751h7.68v1.765h-7.68v1.733h7.595v.286c-.009.497-.08.99-.212 1.468a2.557 2.557 0 01-.779 1.2 2.645 2.645 0 01-1.568.364H72.69v1.819h12.244a.801.801 0 00.637-.27.929.929 0 00.235-.63v-.92l-3.603.014z" fill="#FA2828"/><path d="M48.259 12.878a10.476 10.476 0 001.651-2.412h2.153v3.832h1.033a.922.922 0 00.68-.29 1.118 1.118 0 00.291-.827V5.467c0-.716-.347-1.07-1.037-1.07h-.967v4.428h-1.539c.03-.11.043-.143.07-.256.182-.752.293-1.52.33-2.295 0-.586-.456-.763-.968-.763h-5.435v1.733h3.962c-.02.535-.1 1.065-.237 1.58H44.52v1.653h3.236c-.056.119-.115.207-.181.34-.621 1.046-1.754 1.908-2.78 2.531a.802.802 0 00-.32.302.838.838 0 00.101.989.73.73 0 00.558.242 1 1 0 00.39-.082 7.424 7.424 0 002.734-1.921zm8.56 2.081a1.077 1.077 0 00.31-.81V5.466c0-.716-.346-1.07-1.036-1.07h-.968v10.851h.99c.263.004.516-.1.704-.289zM38.166 6.567c0-.712-.33-1.066-1.037-1.066h-6.145v1.798h7.182v-.732z" fill="#424242"/><path d="M41.475 4.397H40.41v6.41a2.983 2.983 0 01-.353 1.649 2.404 2.404 0 01-1.166.77 7.167 7.167 0 01-2.519.32h-2.661a.613.613 0 01-.417-.198.652.652 0 01-.171-.44v-2.424h5.042v-1.67h-7.182v3.696c0 1.925.882 2.912 2.691 2.967.902.009 1.803-.041 2.698-.15a10.799 10.799 0 002.714-.497 3.844 3.844 0 001.321-.9v4.37h1.017c.285.006.56-.101.77-.3a1.115 1.115 0 00.33-.851V5.463c-.023-.712-.354-1.066-1.05-1.066zm15.632 15.814a9.006 9.006 0 01-2.44-1.502c-.826-.736-1.321-1.502-1.43-2.296 0 0 0 .069 0 0-.06-.582-.403-.875-1.027-.875h-1.165v.45c0 1.744-1.26 3.143-3.781 4.2a.762.762 0 00-.404.276.802.802 0 00-.16.473.749.749 0 00.29.592.89.89 0 00.726.174 7.537 7.537 0 002.312-.916c1.08-.59 1.79-1.206 2.136-1.85.363.634 1.09 1.256 2.18 1.867a7.187 7.187 0 002.212.899c.08.012.162.018.244.017a.881.881 0 00.637-.225.679.679 0 00.235-.524.806.806 0 00-.159-.478.764.764 0 00-.406-.282zM3.515 5.768c0-.412-.08-.68-.332-.858a.114.114 0 00-.133 0 5.708 5.708 0 00-.514.504.526.526 0 00-.15.436v4.342c0 .36.077.62.332.759a.12.12 0 00.13 0 4.83 4.83 0 00.518-.446.44.44 0 00.15-.385V5.768zm7.533 0c0-.412-.08-.68-.332-.858a.114.114 0 00-.132 0 5.71 5.71 0 00-.518.504.536.536 0 00-.15.436v4.342a.77.77 0 00.054.43.75.75 0 00.278.329.123.123 0 00.133 0c.181-.136.354-.285.515-.446a.432.432 0 00.152-.385V5.768zM8.55 8.17c.332.177.531.374.535.698 0 .054 0 .102-.057.13a4.648 4.648 0 01-.664.285.441.441 0 01-.428-.037L4.948 7.69c-.375-.198-.605-.412-.625-.746a.119.119 0 01.007-.075.115.115 0 01.05-.054c.231-.105.47-.192.714-.26a.522.522 0 01.471.065L8.55 8.17zm10.698-2.401c0-.412-.076-.681-.332-.858a.108.108 0 00-.13 0 5.712 5.712 0 00-.517.504.526.526 0 00-.15.435v4.342a.77.77 0 00.055.431.74.74 0 00.277.328.12.12 0 00.13 0c.183-.135.356-.284.518-.446a.428.428 0 00.15-.385V5.77zm7.535-.001c0-.412-.08-.68-.332-.858a.114.114 0 00-.133 0 5.703 5.703 0 00-.514.504.526.526 0 00-.153.436v4.342a.767.767 0 00.054.43c.059.136.155.25.278.329a.12.12 0 00.13 0c.182-.136.355-.285.517-.446a.438.438 0 00.15-.385l.003-4.352zM24.282 8.17c.332.177.53.375.53.698a.125.125 0 01-.053.13 4.886 4.886 0 01-.663.286.435.435 0 01-.425-.038L20.683 7.69c-.379-.198-.608-.412-.625-.746a.118.118 0 01.006-.074.115.115 0 01.047-.055c.232-.104.47-.19.714-.259a.519.519 0 01.472.065l2.985 1.55z" fill="#424242"/><path d="M13.005 7.318a.529.529 0 00-.449.163c-.186.175-.36.363-.521.562a.121.121 0 000 .143c.163.286.461.371.886.371h3.228a.525.525 0 00.448-.163c.186-.175.36-.363.521-.562a.125.125 0 000-.143c-.166-.286-.464-.371-.886-.371h-3.227z" fill="#FA2828"/></svg><svg width="95" height="24" fill="none" viewBox="-4 -4 95 24" id="logo_nhnlink" x="203" y="380" xmlns="http://www.w3.org/2000/svg"><path d="M13.453 6.733c-.287 0-.39.041-.567.205-.184.17-.573.565-.662.695-.041.061-.027.116.014.177.204.355.587.457 1.119.457h4.088c.287 0 .39-.041.567-.205.184-.163.573-.565.662-.695.04-.061.027-.116-.014-.177-.205-.354-.587-.457-1.12-.457h-4.087z" fill="#FA2828"/><path d="M23.978 5.909c-.252-.13-.368-.137-.6-.075-.24.061-.765.245-.901.32-.069.034-.076.095-.069.164.028.409.314.674.792.92l3.645 1.853c.252.13.368.143.6.075.24-.061.765-.245.901-.32.062-.034.075-.095.069-.164-.028-.408-.314-.674-.792-.92L23.978 5.91zm-3.046-2.127c-.055-.034-.11-.047-.164-.013-.123.082-.498.443-.655.62-.15.17-.191.266-.191.538v5.228c0 .504.102.858.43 1.056.055.034.11.047.164.014.123-.082.498-.444.655-.62.15-.171.191-.267.191-.54V4.84c0-.505-.102-.859-.43-1.057zm9.528 0c-.055-.034-.11-.047-.165-.013-.122.082-.498.443-.655.62-.15.17-.19.266-.19.538v5.228c0 .504.102.858.43 1.056.054.034.108.047.163.014.123-.082.498-.444.655-.62.15-.171.191-.267.191-.54V4.84c0-.505-.102-.859-.43-1.057zM4.052 5.909c-.252-.13-.368-.137-.6-.075-.24.061-.765.245-.901.32-.068.034-.075.095-.068.164.027.409.314.674.791.92L6.92 9.09c.252.13.368.143.6.075.24-.061.765-.245.901-.32.062-.034.075-.095.069-.164-.028-.408-.314-.674-.792-.92L4.052 5.91zM1.01 3.782C.956 3.748.9 3.735.846 3.77c-.123.082-.498.443-.655.62-.15.17-.191.266-.191.538v5.228c0 .504.102.858.43 1.056.055.034.11.047.164.014.123-.082.498-.444.655-.62.15-.171.191-.267.191-.54V4.84c0-.505-.102-.859-.43-1.057zm9.527 0c-.054-.034-.109-.047-.163-.013-.123.082-.499.443-.656.62-.15.17-.19.266-.19.538v5.228c0 .504.102.858.43 1.056.054.034.108.047.163.014.123-.082.498-.444.655-.62.15-.171.191-.267.191-.54V4.84c0-.505-.102-.859-.43-1.057z" fill="#494949"/><path d="M47.66 11.92h-6.013V1.622A1.61 1.61 0 0040.023 0a1.61 1.61 0 00-1.625 1.622v11.627a1.61 1.61 0 001.625 1.621h7.637c.82 0 1.474-.654 1.474-1.471 0-.818-.655-1.473-1.474-1.473v-.006zM53.23 0a1.61 1.61 0 00-1.624 1.622v11.75a1.61 1.61 0 001.624 1.621 1.61 1.61 0 001.624-1.622V1.622A1.61 1.61 0 0053.23 0zm16.824 0a1.6 1.6 0 00-1.604 1.602V9.2L62.191.988c-.443-.565-.907-.947-1.685-.947h-.335a1.61 1.61 0 00-1.624 1.622v11.729a1.6 1.6 0 001.604 1.601 1.6 1.6 0 001.604-1.601V5.493l6.497 8.505c.444.566.908.947 1.686.947h.102a1.61 1.61 0 001.625-1.622V1.602A1.6 1.6 0 0070.06 0h-.007zm11.73 7.51l4.73-4.723a1.602 1.602 0 000-2.29 1.609 1.609 0 00-2.293 0l-5.808 5.8V1.622A1.61 1.61 0 0076.788 0a1.61 1.61 0 00-1.624 1.622v11.75a1.61 1.61 0 001.624 1.621 1.61 1.61 0 001.625-1.622V8.723l5.808 5.8a1.61 1.61 0 002.293 0c.642-.64.642-1.65 0-2.29l-4.73-4.723z" fill="#FA2828"/></svg><svg width="78" height="21" fill="none" viewBox="-4 -4 78 21" id="logo_nhnlink_w" x="494" y="376" xmlns="http://www.w3.org/2000/svg"><path d="M10.825 5.387c-.23 0-.313.032-.456.163-.148.137-.461.453-.533.556-.033.05-.022.093.011.142.165.284.473.365.9.365h3.29c.23 0 .313-.032.456-.163a5.37 5.37 0 00.533-.556c.033-.05.022-.093-.011-.142-.165-.284-.473-.365-.9-.365h-3.29zm8.467-.66c-.203-.104-.297-.11-.483-.06a5.21 5.21 0 00-.725.256c-.055.027-.06.077-.055.131.022.327.253.54.637.736l2.933 1.483c.203.104.296.115.483.06a5.21 5.21 0 00.725-.256c.049-.027.06-.077.055-.131-.022-.327-.253-.54-.637-.736l-2.933-1.483zm-2.448-1.701c-.044-.027-.088-.038-.132-.011-.099.065-.4.354-.527.496-.12.136-.154.213-.154.43v4.183c0 .403.083.687.346.845.044.027.088.038.132.01.099-.065.4-.354.527-.496.121-.136.154-.212.154-.43V3.87c0-.403-.082-.687-.346-.845zm7.664 0c-.044-.027-.088-.038-.132-.011-.099.065-.4.354-.527.496-.12.136-.154.213-.154.43v4.183c0 .403.083.687.346.845.044.027.088.038.132.01.099-.065.4-.354.527-.496.121-.136.154-.212.154-.43V3.87c0-.403-.082-.687-.346-.845zM3.26 4.727c-.202-.104-.296-.11-.482-.06a5.2 5.2 0 00-.725.256c-.055.027-.06.077-.055.131.022.327.252.54.637.736l2.932 1.483c.203.104.297.115.483.06.193-.049.616-.196.725-.256.05-.027.06-.077.055-.131-.022-.327-.252-.54-.637-.736L3.261 4.727zM.813 3.026C.769 2.999.725 2.988.68 3.015a4.73 4.73 0 00-.527.496c-.121.136-.154.213-.154.43v4.183c0 .403.082.687.346.845.044.027.088.038.132.01.099-.065.4-.354.527-.496.12-.136.154-.212.154-.43V3.87c0-.403-.083-.687-.346-.845zm7.667 0c-.043-.027-.087-.038-.131-.011a4.73 4.73 0 00-.527.496c-.121.136-.154.213-.154.43v4.183c0 .403.082.687.346.845.044.027.088.038.132.01.099-.065.4-.354.527-.496.12-.136.154-.212.154-.43V3.87c0-.403-.083-.687-.346-.845zm29.866 6.51H33.51V1.298C33.508.572 32.931 0 32.201 0s-1.307.572-1.307 1.298v9.3c0 .726.576 1.298 1.307 1.298h6.145a1.177 1.177 0 100-2.355v-.005zM42.827 0c-.73 0-1.307.572-1.307 1.298v9.399c0 .725.576 1.298 1.306 1.298.73 0 1.307-.573 1.307-1.298v-9.4A1.29 1.29 0 0042.828 0zm13.537 0c-.714 0-1.29.572-1.29 1.281v6.08L50.038.79c-.357-.453-.73-.758-1.356-.758h-.27a1.29 1.29 0 00-1.306 1.297v9.383c0 .71.576 1.282 1.29 1.282.714 0 1.29-.573 1.29-1.282V4.394l5.228 6.804c.357.453.73.758 1.357.758h.082c.73 0 1.307-.572 1.307-1.297V1.28c0-.708-.576-1.28-1.29-1.28h-.006zm9.439 6.008L69.61 2.23a1.277 1.277 0 000-1.832 1.3 1.3 0 00-1.845 0l-4.673 4.64v-3.74A1.294 1.294 0 0061.782 0a1.29 1.29 0 00-1.306 1.298v9.399c0 .725.576 1.298 1.306 1.298.73 0 1.307-.573 1.307-1.298V6.979l4.674 4.64a1.3 1.3 0 001.845 0 1.277 1.277 0 000-1.833l-3.806-3.778z" fill="#fff"/></svg><svg width="54" height="21" fill="none" viewBox="-4 -4 54 21" id="logo_payco" x="216" y="335" xmlns="http://www.w3.org/2000/svg"><g clip-path="url(#crclip0_1715_37305)" fill="#FA2828"><path d="M0 2.26a1.216 1.216 0 01.081-.449c.055-.142.137-.272.24-.38a1.064 1.064 0 01.786-.34h3.005c2.401 0 3.853 1.504 3.853 3.677v.03c0 2.46-1.81 3.739-4.068 3.739H2.215v2.202c-.01.304-.131.59-.338.802-.206.21-.482.328-.77.328-.287 0-.563-.118-.77-.328A1.202 1.202 0 010 10.739V2.261zm3.972 4.198c1.109 0 1.755-.698 1.755-1.61v-.03c0-1.05-.685-1.61-1.797-1.61H2.215v3.25h1.757zm3.643 3.856l3.508-8.372c.244-.579.684-.928 1.294-.928h.129c.604 0 1.035.35 1.28.928l3.509 8.372a1.2 1.2 0 01.115.47c.002.147-.024.293-.076.43a1.12 1.12 0 01-.226.364 1.048 1.048 0 01-.343.245 1 1 0 01-.405.086c-.517 0-.862-.319-1.064-.805l-.677-1.672h-4.428l-.704 1.747a1.147 1.147 0 01-.405.527 1.055 1.055 0 01-.616.197.972.972 0 01-.394-.083 1.017 1.017 0 01-.334-.238 1.084 1.084 0 01-.22-.355 1.13 1.13 0 01-.073-.418 1.28 1.28 0 01.13-.495zm6.225-2.946l-1.394-3.51-1.395 3.51h2.79zm5.95.348L16.54 3.05a1.438 1.438 0 01-.274-.835c.002-.151.032-.3.089-.438.057-.139.14-.264.242-.368a1.07 1.07 0 01.358-.242 1.03 1.03 0 01.417-.077c.503 0 .822.29 1.096.714l2.444 3.722L23.4 1.774c.273-.425.604-.699 1.064-.699a.977.977 0 01.421.07 1.073 1.073 0 01.59.625c.052.142.074.294.067.446a1.516 1.516 0 01-.287.82l-3.25 4.632v3.07c0 .31-.117.607-.324.827-.208.22-.49.342-.783.342-.293 0-.575-.123-.782-.342a1.204 1.204 0 01-.325-.827V7.716zm5.82-1.186V6.5c0-3.024 2.155-5.5 5.247-5.5 1.507 0 2.531.426 3.364 1.078.135.11.243.25.318.411a1.227 1.227 0 01.03.957 1.134 1.134 0 01-.595.617 1.03 1.03 0 01-.417.082 1.113 1.113 0 01-.662-.229 3.21 3.21 0 00-2.054-.758c-1.698 0-2.92 1.488-2.92 3.312v.03c0 1.824 1.194 3.342 2.92 3.342.934 0 1.551-.304 2.184-.835.103-.097.222-.171.352-.219a.975.975 0 01.798.058c.123.066.231.157.32.268a1.142 1.142 0 01.117 1.219c-.066.127-.156.24-.263.33-.906.836-1.97 1.337-3.581 1.337-2.959 0-5.159-2.416-5.159-5.47zm9.69 0V6.5c0-3.024 2.258-5.5 5.365-5.5s5.334 2.446 5.334 5.47v.03c0 3.024-2.258 5.5-5.363 5.5-3.105 0-5.335-2.446-5.335-5.47zm8.384 0V6.5c0-1.824-1.266-3.342-3.048-3.342s-3.02 1.488-3.02 3.312v.03c0 1.824 1.265 3.342 3.049 3.342 1.783 0 3.017-1.488 3.017-3.312h.002z"/></g><defs><clipPath id="crclip0_1715_37305"><path fill="#fff" transform="translate(0 1)" d="M0 0h46v11H0z"/></clipPath></defs></svg><svg width="54" height="21" fill="none" viewBox="-4 -4 54 21" id="logo_payco_disabled" x="270" y="335" xmlns="http://www.w3.org/2000/svg"><path d="M0 2.26a1.216 1.216 0 01.081-.449c.055-.142.137-.272.24-.38a1.064 1.064 0 01.786-.34h3.005c2.401 0 3.853 1.504 3.853 3.677v.03c0 2.46-1.81 3.739-4.068 3.739H2.215v2.202a1.2 1.2 0 01-.338.802c-.206.21-.482.328-.77.328-.287 0-.563-.117-.77-.328A1.202 1.202 0 010 10.739V2.261zm3.972 4.198c1.109 0 1.755-.697 1.755-1.61v-.03c0-1.049-.685-1.61-1.797-1.61H2.215v3.25h1.757zm3.643 3.856l3.508-8.372c.244-.579.684-.927 1.294-.927h.129c.604 0 1.035.35 1.28.927l3.509 8.372c.07.146.109.307.115.47a1.136 1.136 0 01-.302.795 1.048 1.048 0 01-.343.244 1.001 1.001 0 01-.405.086c-.517 0-.862-.318-1.064-.805l-.677-1.671h-4.428l-.704 1.747a1.148 1.148 0 01-.405.527 1.055 1.055 0 01-.616.196.97.97 0 01-.394-.083 1.017 1.017 0 01-.334-.237 1.085 1.085 0 01-.22-.356 1.131 1.131 0 01-.073-.418c.01-.173.054-.341.13-.495zm6.225-2.945l-1.394-3.51-1.395 3.51h2.79zm5.95.347L16.54 3.05a1.438 1.438 0 01-.274-.835c.002-.151.032-.3.089-.438.057-.139.14-.264.242-.368a1.07 1.07 0 01.358-.242 1.03 1.03 0 01.417-.077c.503 0 .822.29 1.096.714l2.444 3.722L23.4 1.774c.273-.425.604-.699 1.064-.699a.977.977 0 01.421.07 1.073 1.073 0 01.59.625c.052.142.074.294.067.446a1.516 1.516 0 01-.287.82l-3.25 4.632v3.07c0 .31-.117.607-.324.827-.208.22-.49.342-.783.342-.293 0-.575-.123-.782-.342a1.204 1.204 0 01-.325-.827V7.716zm5.82-1.186V6.5c0-3.024 2.155-5.5 5.247-5.5 1.507 0 2.531.426 3.364 1.078.135.11.243.25.318.411a1.227 1.227 0 01.03.957 1.134 1.134 0 01-.595.617 1.03 1.03 0 01-.417.082 1.113 1.113 0 01-.662-.229 3.21 3.21 0 00-2.054-.758c-1.698 0-2.92 1.488-2.92 3.312v.03c0 1.824 1.194 3.342 2.92 3.342.934 0 1.551-.304 2.184-.835.103-.097.222-.171.352-.219a.975.975 0 01.798.058c.123.066.231.157.32.268a1.142 1.142 0 01.117 1.219c-.066.127-.156.24-.263.33-.906.836-1.97 1.337-3.581 1.337-2.959 0-5.159-2.416-5.159-5.47zm9.69 0V6.5c0-3.024 2.258-5.5 5.365-5.5s5.334 2.446 5.334 5.47v.03c0 3.024-2.258 5.5-5.363 5.5-3.105 0-5.335-2.446-5.335-5.47zm8.384 0V6.5c0-1.824-1.266-3.342-3.048-3.342s-3.02 1.488-3.02 3.312v.03c0 1.824 1.265 3.342 3.049 3.342 1.783 0 3.017-1.488 3.017-3.312h.002z" fill="#A7ACB6"/></svg><svg width="184" height="36" fill="none" viewBox="-4 -4 184 36" id="logo_payco_ticketlink" y="171" xmlns="http://www.w3.org/2000/svg"><path d="M0 7.065a1.932 1.932 0 01.544-1.36 1.825 1.825 0 011.333-.556h5.096c4.071 0 6.534 2.463 6.534 6.023v.05c0 4.031-3.071 6.125-6.899 6.125H3.756v3.61a1.937 1.937 0 01-.573 1.312c-.35.345-.818.538-1.305.538s-.955-.193-1.305-.538A1.937 1.937 0 010 20.956V7.065zm6.736 6.877c1.879 0 2.975-1.143 2.975-2.637v-.05c0-1.72-1.161-2.64-3.047-2.64H3.756v5.327h2.98zm6.174 6.318l5.95-13.716c.413-.949 1.161-1.52 2.195-1.52h.218c1.024 0 1.756.573 2.172 1.52l5.948 13.716c.118.24.185.502.195.77a1.85 1.85 0 01-.512 1.302 1.748 1.748 0 01-1.267.541c-.878 0-1.463-.522-1.805-1.318l-1.147-2.74h-7.51l-1.193 2.863a1.89 1.89 0 01-.687.864 1.831 1.831 0 01-1.044.321 1.696 1.696 0 01-1.235-.525 1.797 1.797 0 01-.498-1.268 2.06 2.06 0 01.221-.81zm10.557-4.826l-2.364-5.75-2.365 5.75h4.729zm10.091.569L28.047 8.36a2.302 2.302 0 01-.465-1.368 1.904 1.904 0 01.562-1.32 1.8 1.8 0 011.315-.522c.852 0 1.393.474 1.858 1.169l4.144 6.099 4.218-6.15c.464-.696 1.024-1.144 1.804-1.144a1.707 1.707 0 011.322.518 1.81 1.81 0 01.506 1.35 2.43 2.43 0 01-.485 1.345l-5.512 7.588v5.03c0 .508-.198.996-.55 1.355-.352.36-.829.561-1.327.561a1.86 1.86 0 01-1.327-.561 1.937 1.937 0 01-.55-1.355l-.002-4.951zm9.866-1.942v-.05C43.424 9.057 47.08 5 52.322 5c2.555 0 4.292.697 5.705 1.767a1.923 1.923 0 01.731 1.52 1.905 1.905 0 01-.547 1.329 1.828 1.828 0 01-1.31.537 1.93 1.93 0 01-1.123-.375 5.558 5.558 0 00-3.484-1.242c-2.878 0-4.95 2.438-4.95 5.425v.05c0 2.988 2.024 5.476 4.95 5.476 1.584 0 2.632-.498 3.705-1.368a1.733 1.733 0 011.282-.451 1.74 1.74 0 011.21.626 1.789 1.789 0 01.402 1.322 1.804 1.804 0 01-.205.675 1.769 1.769 0 01-.445.54c-1.536 1.371-3.34 2.192-6.072 2.192-5.017 0-8.747-3.958-8.747-8.962zm16.436 0v-.05C59.86 9.057 63.686 5 68.954 5 74.223 5 78 9.008 78 13.961v.05c0 4.954-3.828 9.012-9.094 9.012-5.265 0-9.047-4.008-9.047-8.962zm14.214 0v-.05c0-2.988-2.146-5.475-5.168-5.475-3.022 0-5.121 2.438-5.121 5.425v.05c0 2.988 2.146 5.476 5.17 5.476s5.117-2.438 5.117-5.426h.002z" fill="#FA2828"/><path d="M96 10L86 20m10 0L86 10" stroke="#242428" stroke-linecap="round" stroke-linejoin="round"/><path d="M156.109 1.539L155.355 0l-.759 1.539-1.696.243 1.223 1.2-.286 1.687 1.518-.798 1.513.798-.286-1.687 1.227-1.2-1.7-.243zm-.777 4.057h-1.392v6.563c0 1.734-.736 2.816-2.207 3.247-.967.268-2.524.403-4.693.403a39.48 39.48 0 01-2.502-.074.35.35 0 01-.321-.347v-2.024h5.516c.905 0 1.358-.454 1.358-1.361V8.357c0-.905-.453-1.357-1.358-1.357h-8.204v2.25h6.786v1.968h-5.949a.928.928 0 00-.928.928v3.329c0 .958.19 1.638.563 2.046.373.407 1.028.65 2.09.754.255.026.58.04.976.04a31.916 31.916 0 003.842-.257 13.24 13.24 0 003.184-.654 5.384 5.384 0 001.847-1.34v2.905c0 .087.147.793.147.793a2.477 2.477 0 00-.49-.225 5.8 5.8 0 00-1.83-.29 5.372 5.372 0 00-3.629 1.187 4.322 4.322 0 00-1.39 3.18 4.334 4.334 0 001.39 3.18 5.36 5.36 0 003.629 1.2 5.157 5.157 0 003.543-1.2 3.998 3.998 0 001.388-3.187V6.957c0-.908-.455-1.361-1.366-1.361zm-1.947 19.59a2.365 2.365 0 01-1.657.606 2.393 2.393 0 01-1.682-.607 2.194 2.194 0 010-3.143 2.38 2.38 0 011.682-.615 2.35 2.35 0 011.657.615 2.196 2.196 0 01.488 2.424c-.113.27-.279.514-.488.72zm17.884-7.243a5.452 5.452 0 001.301-1.756c.256-.607.664-1.552.664-4.074V8.385c0-.91-.434-1.362-1.362-1.362h-11.431v2.229h10.087v2.245h-10.087v2.207h9.974v.364a7.337 7.337 0 01-.278 1.868 3.246 3.246 0 01-1.023 1.526 3.562 3.562 0 01-2.06.464h-8.279v2.315h16.08a1.086 1.086 0 00.837-.343c.202-.218.312-.505.308-.802v-1.17l-4.731.017z" fill="#FA2828"/><path d="M126.688 16.39a13.328 13.328 0 002.168-3.07h2.828v4.877h1.357a1.242 1.242 0 00.893-.368 1.421 1.421 0 00.382-1.054V6.957c0-.91-.455-1.361-1.362-1.361h-1.27v5.635h-2.021c.039-.139.056-.182.091-.325a15.1 15.1 0 00.434-2.922c0-.745-.599-.97-1.271-.97h-7.138V9.22h5.204a9.007 9.007 0 01-.312 2.011h-4.892v2.103h4.25c-.074.151-.152.264-.239.433-.815 1.33-2.302 2.428-3.651 3.22a1.038 1.038 0 00-.573.933c-.002.265.101.521.287.71a.952.952 0 00.733.309c.175-.002.349-.037.511-.105a9.757 9.757 0 003.591-2.444zm11.242 2.648a1.327 1.327 0 00.407-1.032V6.956c0-.91-.455-1.36-1.361-1.36h-1.271v13.81h1.301c.345.005.677-.127.924-.368zM113.432 8.357c0-.906-.434-1.357-1.362-1.357H104v2.289h9.432v-.932z" fill="#424242"/><path d="M117.777 5.596h-1.396v8.158a3.7 3.7 0 01-.464 2.098 3.17 3.17 0 01-1.531.98 9.693 9.693 0 01-3.309.407h-3.495a.813.813 0 01-.772-.81v-3.087h6.622v-2.124H104v4.703c0 2.45 1.158 3.707 3.534 3.776a27.844 27.844 0 003.543-.19 14.593 14.593 0 003.565-.634 5.064 5.064 0 001.735-1.144v5.562h1.335c.374.008.736-.13 1.011-.382a1.42 1.42 0 00.433-1.083V6.953c-.03-.906-.464-1.357-1.379-1.357zm20.531 20.127a11.886 11.886 0 01-3.205-1.912c-1.084-.936-1.735-1.912-1.878-2.921 0 0 0 .086 0 0-.078-.742-.529-1.115-1.349-1.115h-1.53v.573c0 2.22-1.656 4-4.966 5.345a1.005 1.005 0 00-.741.953.92.92 0 00.381.754 1.187 1.187 0 00.954.222 10.082 10.082 0 003.036-1.166c1.418-.75 2.35-1.535 2.806-2.354.477.806 1.431 1.598 2.862 2.375a9.608 9.608 0 002.905 1.145c.107.015.214.022.321.021.306.017.606-.086.837-.286a.865.865 0 00.308-.668 1.007 1.007 0 00-.741-.966z" fill="#424242"/></svg><svg width="54" height="21" fill="none" viewBox="-4 -4 54 21" id="logo_payco_w" x="324" y="335" xmlns="http://www.w3.org/2000/svg"><g clip-path="url(#cuclip0_1715_37305)" fill="#fff"><path d="M0 2.26a1.216 1.216 0 01.081-.449c.055-.142.137-.272.24-.38a1.064 1.064 0 01.786-.34h3.005c2.401 0 3.853 1.504 3.853 3.677v.03c0 2.46-1.81 3.739-4.068 3.739H2.215v2.202c-.01.304-.131.59-.338.802-.206.21-.482.328-.77.328-.287 0-.563-.118-.77-.328A1.202 1.202 0 010 10.739V2.261zm3.972 4.198c1.109 0 1.755-.698 1.755-1.61v-.03c0-1.05-.685-1.61-1.797-1.61H2.215v3.25h1.757zm3.643 3.856l3.508-8.372c.244-.579.684-.928 1.294-.928h.129c.604 0 1.035.35 1.28.928l3.509 8.372a1.2 1.2 0 01.115.47c.002.147-.024.293-.076.43a1.12 1.12 0 01-.226.364 1.048 1.048 0 01-.343.245 1 1 0 01-.405.086c-.517 0-.862-.319-1.064-.805l-.677-1.672h-4.428l-.704 1.747a1.147 1.147 0 01-.405.527 1.055 1.055 0 01-.616.197.972.972 0 01-.394-.083 1.017 1.017 0 01-.334-.238 1.084 1.084 0 01-.22-.355 1.13 1.13 0 01-.073-.418 1.28 1.28 0 01.13-.495zm6.225-2.946l-1.394-3.51-1.395 3.51h2.79zm5.95.348L16.54 3.05a1.438 1.438 0 01-.274-.835c.002-.151.032-.3.089-.438.057-.139.14-.264.242-.368a1.07 1.07 0 01.358-.242 1.03 1.03 0 01.417-.077c.503 0 .822.29 1.096.714l2.444 3.722L23.4 1.774c.273-.425.604-.699 1.064-.699a.977.977 0 01.421.07 1.073 1.073 0 01.59.625c.052.142.074.294.067.446a1.516 1.516 0 01-.287.82l-3.25 4.632v3.07c0 .31-.117.607-.324.827-.208.22-.49.342-.783.342-.293 0-.575-.123-.782-.342a1.204 1.204 0 01-.325-.827V7.716zm5.82-1.186V6.5c0-3.024 2.155-5.5 5.247-5.5 1.507 0 2.531.426 3.364 1.078.135.11.243.25.318.411a1.227 1.227 0 01.03.957 1.134 1.134 0 01-.595.617 1.03 1.03 0 01-.417.082 1.113 1.113 0 01-.662-.229 3.21 3.21 0 00-2.054-.758c-1.698 0-2.92 1.488-2.92 3.312v.03c0 1.824 1.194 3.342 2.92 3.342.934 0 1.551-.304 2.184-.835.103-.097.222-.171.352-.219a.975.975 0 01.798.058c.123.066.231.157.32.268a1.142 1.142 0 01.117 1.219c-.066.127-.156.24-.263.33-.906.836-1.97 1.337-3.581 1.337-2.959 0-5.159-2.416-5.159-5.47zm9.69 0V6.5c0-3.024 2.258-5.5 5.365-5.5s5.334 2.446 5.334 5.47v.03c0 3.024-2.258 5.5-5.363 5.5-3.105 0-5.335-2.446-5.335-5.47zm8.384 0V6.5c0-1.824-1.266-3.342-3.048-3.342s-3.02 1.488-3.02 3.312v.03c0 1.824 1.265 3.342 3.049 3.342 1.783 0 3.017-1.488 3.017-3.312h.002z"/></g><defs><clipPath id="cuclip0_1715_37305"><path fill="#fff" transform="translate(0 1)" d="M0 0h46v11H0z"/></clipPath></defs></svg><svg width="77" height="35" fill="none" viewBox="-4 -4 77 35" id="logo_ticketlink_ko" x="494" y="397" xmlns="http://www.w3.org/2000/svg"><path d="M49.938 1.484L49.214 0l-.727 1.484-1.625.234 1.172 1.158-.274 1.626 1.455-.77 1.45.77-.274-1.626 1.176-1.158-1.63-.234zm-.745 3.912H47.86v6.33c0 1.671-.705 2.715-2.115 3.13-.927.26-2.419.389-4.497.389-.769 0-1.795-.025-2.398-.071a.336.336 0 01-.307-.335v-1.952h5.286c.867 0 1.301-.437 1.301-1.312V8.059c0-.872-.434-1.308-1.3-1.308h-7.864v2.17h6.504v1.897h-5.702a.887.887 0 00-.629.262.897.897 0 00-.26.633v3.21c0 .924.183 1.58.54 1.973.358.393.985.627 2.003.727.244.025.556.038.935.038a30.412 30.412 0 003.682-.247 12.603 12.603 0 003.051-.631 5.154 5.154 0 001.77-1.292v2.8c0 .084.142.766.142.766a2.376 2.376 0 00-.47-.217 5.531 5.531 0 00-1.754-.28 5.13 5.13 0 00-3.478 1.145 4.18 4.18 0 00-1.331 3.066 4.202 4.202 0 001.33 3.066 5.118 5.118 0 003.48 1.158 4.923 4.923 0 003.395-1.158 3.857 3.857 0 001.33-3.072V6.709c0-.875-.437-1.313-1.31-1.313zm-1.866 18.89a2.257 2.257 0 01-1.587.585 2.286 2.286 0 01-1.613-.585 2.116 2.116 0 01-.635-1.515 2.126 2.126 0 01.635-1.515 2.274 2.274 0 011.613-.594 2.245 2.245 0 011.587.594 2.124 2.124 0 01.633 1.515 2.133 2.133 0 01-.633 1.515zm17.139-6.985a5.257 5.257 0 001.247-1.693c.245-.585.636-1.496.636-3.929V8.084c0-.878-.416-1.312-1.305-1.312H54.089V8.92h9.667v2.165h-9.667v2.128h9.559v.351c-.011.61-.1 1.216-.266 1.802a3.132 3.132 0 01-.981 1.471 3.396 3.396 0 01-1.974.448h-7.934v2.232h15.41a1.03 1.03 0 00.802-.33c.193-.21.299-.488.295-.774v-1.128l-4.534.016z" fill="#FA2828"/><path d="M21.743 15.805a12.855 12.855 0 002.078-2.96h2.71v4.703h1.3a1.187 1.187 0 00.857-.355 1.362 1.362 0 00.365-1.016V6.709c0-.878-.436-1.313-1.305-1.313h-1.217v5.435h-1.937c.037-.134.054-.176.087-.314.23-.923.37-1.867.416-2.817 0-.72-.574-.937-1.218-.937h-6.84v2.128h4.987a8.709 8.709 0 01-.3 1.94H17.04v2.027h4.072c-.07.146-.145.255-.228.418-.781 1.283-2.207 2.34-3.5 3.106a.999.999 0 00-.548.898.969.969 0 00.274.686.919.919 0 00.703.297c.168-.001.335-.035.49-.1a9.349 9.349 0 003.441-2.358zm10.774 2.554a1.282 1.282 0 00.39-.995V6.709c0-.878-.436-1.313-1.305-1.313h-1.217v13.318h1.246c.33.004.65-.123.886-.355zM9.04 8.06c0-.875-.417-1.31-1.306-1.31H0v2.208h9.04v-.899z" fill="#424242"/><path d="M13.203 5.396h-1.338v7.867a3.58 3.58 0 01-.445 2.024c-.386.452-.896.78-1.467.944a9.239 9.239 0 01-3.17.393h-3.35a.78.78 0 01-.74-.782v-2.976h6.346v-2.048H0v4.535c0 2.362 1.11 3.574 3.387 3.641a26.37 26.37 0 003.395-.184 13.91 13.91 0 003.417-.61 4.842 4.842 0 001.662-1.104v5.363h1.28c.358.008.705-.124.968-.367a1.364 1.364 0 00.416-1.045V6.705c-.03-.874-.445-1.309-1.322-1.309zm19.675 19.408a11.387 11.387 0 01-3.072-1.843c-1.039-.903-1.662-1.843-1.799-2.817 0 0 0 .083 0 0-.075-.715-.507-1.075-1.293-1.075h-1.466v.552c0 2.14-1.587 3.858-4.759 5.154a.96.96 0 00-.71.92.9.9 0 00.365.727 1.133 1.133 0 00.914.213 9.628 9.628 0 002.91-1.124c1.358-.723 2.252-1.48 2.688-2.27.457.777 1.372 1.541 2.743 2.29a9.138 9.138 0 002.785 1.104c.102.015.204.022.307.021.293.016.58-.083.802-.276a.834.834 0 00.295-.643.973.973 0 00-.71-.933z" fill="#424242"/></svg><svg width="92" height="24" fill="none" viewBox="-4 -4 92 24" id="logo_toss_pay" x="298" y="380" xmlns="http://www.w3.org/2000/svg"><g clip-path="url(#cwclip0_3199_18171)" fill="#0064FF"><path d="M72.544 6.024c-.76-.88-1.84-1.368-3.048-1.368-2.368 0-4.152 1.872-4.152 4.36 0 2.488 1.784 4.36 4.152 4.36 1.248 0 2.384-.536 3.136-1.464v1.352h1.256V4.776h-1.344v1.248zm-2.84 6.04c-1.696 0-2.936-1.28-2.936-3.048S68 5.968 69.704 5.968c1.616 0 2.816 1.152 2.928 2.8v.496c-.112 1.648-1.312 2.8-2.928 2.8zm11.888-7.32l-2.784 6.52-2.704-6.52h-1.488l3.448 8.088-1.328 3.152h1.392l1.144-2.752 3.784-8.488h-1.464zm-21.248-.088c-1.248 0-2.384.536-3.136 1.464V4.792h-1.256v11.192h1.344v-3.976c.76.88 1.84 1.368 3.048 1.368 2.368 0 4.152-1.872 4.152-4.36 0-2.488-1.784-4.36-4.152-4.36zm-.208 7.408c-1.616 0-2.816-1.152-2.928-2.8v-.496c.112-1.648 1.312-2.8 2.928-2.8 1.696 0 2.936 1.28 2.936 3.048s-1.232 3.048-2.936 3.048zM21.12 10.12V6.616h-1.824v-1.84h1.824V2.552l2.232-.6v2.816h2.784v1.84h-2.784v3.472c0 .92.496 1.464 1.352 1.464.488 0 .848-.096 1.224-.376l.8 1.664c-.592.456-1.368.672-2.216.672-2.168.008-3.392-1.216-3.392-3.384zm5.72-1.096c0-2.552 1.976-4.456 4.64-4.456 2.664 0 4.64 1.912 4.64 4.456 0 2.552-1.976 4.464-4.64 4.464-2.664 0-4.64-1.912-4.64-4.464zm4.64 2.472c1.36 0 2.384-1.056 2.384-2.464S32.856 6.56 31.48 6.56c-1.36 0-2.384 1.056-2.384 2.464s1.024 2.472 2.384 2.472zm5.224-.232l2.216-.6c.144.688.784 1.08 1.816 1.08.848 0 1.464-.384 1.464-.888 0-.376-.432-.64-1.096-.784l-1.656-.352c-1.568-.336-2.536-1.168-2.536-2.368 0-1.672 1.448-2.792 3.568-2.792 1.896 0 3.336.864 3.72 2.256l-2.088.568c-.136-.664-.792-1.104-1.704-1.104-.768 0-1.28.36-1.28.864 0 .392.352.6.92.728l1.96.448c1.48.336 2.376 1.16 2.376 2.36 0 1.752-1.464 2.808-3.84 2.808-2.08 0-3.528-.84-3.84-2.224zm8.224 0l2.216-.6c.144.688.784 1.08 1.816 1.08.848 0 1.464-.384 1.464-.888 0-.376-.432-.64-1.096-.784l-1.656-.352c-1.568-.336-2.536-1.168-2.536-2.368 0-1.672 1.448-2.792 3.568-2.792 1.896 0 3.336.864 3.72 2.256l-2.088.568c-.136-.664-.792-1.104-1.704-1.104-.768 0-1.28.36-1.28.864 0 .392.352.6.92.728l1.936.44c1.48.336 2.376 1.16 2.376 2.36 0 1.752-1.464 2.808-3.84 2.808-2.064.008-3.512-.832-3.816-2.216zM9.472 3.632l.712-3.344c.032-.168-.112-.32-.28-.28a14.589 14.589 0 00-3.168.96C1.952 2.992-.936 6.96.28 9.832c.92 2.152 3.888 3.072 7.336 2.536l-.712 3.344c-.032.168.112.32.28.28a14.588 14.588 0 003.168-.96c4.784-2.024 7.672-5.992 6.456-8.872-.912-2.144-3.88-3.064-7.336-2.528z"/></g><defs><clipPath id="cwclip0_3199_18171"><path fill="#fff" d="M0 0h83.056v16H0z"/></clipPath></defs></svg><svg width="92" height="24" fill="none" viewBox="-4 -4 92 24" id="logo_toss_pay_disabled" x="390" y="380" xmlns="http://www.w3.org/2000/svg"><g clip-path="url(#cxclip0_3199_18192)" fill="#A7ACB6"><path d="M72.544 6.024c-.76-.88-1.84-1.368-3.048-1.368-2.368 0-4.152 1.872-4.152 4.36 0 2.488 1.784 4.36 4.152 4.36 1.248 0 2.384-.536 3.136-1.464v1.352h1.256V4.776h-1.344v1.248zm-2.84 6.04c-1.696 0-2.936-1.28-2.936-3.048S68 5.968 69.704 5.968c1.616 0 2.816 1.152 2.928 2.8v.496c-.112 1.648-1.312 2.8-2.928 2.8zm11.888-7.32l-2.784 6.52-2.704-6.52h-1.488l3.448 8.088-1.328 3.152h1.392l1.144-2.752 3.784-8.488h-1.464zm-21.248-.088c-1.248 0-2.384.536-3.136 1.464V4.792h-1.256v11.192h1.344v-3.976c.76.88 1.84 1.368 3.048 1.368 2.368 0 4.152-1.872 4.152-4.36 0-2.488-1.784-4.36-4.152-4.36zm-.208 7.408c-1.616 0-2.816-1.152-2.928-2.8v-.496c.112-1.648 1.312-2.8 2.928-2.8 1.696 0 2.936 1.28 2.936 3.048s-1.232 3.048-2.936 3.048zM21.12 10.12V6.616h-1.824v-1.84h1.824V2.552l2.232-.6v2.816h2.784v1.84h-2.784v3.472c0 .92.496 1.464 1.352 1.464.488 0 .848-.096 1.224-.376l.8 1.664c-.592.456-1.368.672-2.216.672-2.168.008-3.392-1.216-3.392-3.384zm5.72-1.096c0-2.552 1.976-4.456 4.64-4.456 2.664 0 4.64 1.912 4.64 4.456 0 2.552-1.976 4.464-4.64 4.464-2.664 0-4.64-1.912-4.64-4.464zm4.64 2.472c1.36 0 2.384-1.056 2.384-2.464S32.856 6.56 31.48 6.56c-1.36 0-2.384 1.056-2.384 2.464s1.024 2.472 2.384 2.472zm5.224-.232l2.216-.6c.144.688.784 1.08 1.816 1.08.848 0 1.464-.384 1.464-.888 0-.376-.432-.64-1.096-.784l-1.656-.352c-1.568-.336-2.536-1.168-2.536-2.368 0-1.672 1.448-2.792 3.568-2.792 1.896 0 3.336.864 3.72 2.256l-2.088.568c-.136-.664-.792-1.104-1.704-1.104-.768 0-1.28.36-1.28.864 0 .392.352.6.92.728l1.96.448c1.48.336 2.376 1.16 2.376 2.36 0 1.752-1.464 2.808-3.84 2.808-2.08 0-3.528-.84-3.84-2.224zm8.224 0l2.216-.6c.144.688.784 1.08 1.816 1.08.848 0 1.464-.384 1.464-.888 0-.376-.432-.64-1.096-.784l-1.656-.352c-1.568-.336-2.536-1.168-2.536-2.368 0-1.672 1.448-2.792 3.568-2.792 1.896 0 3.336.864 3.72 2.256l-2.088.568c-.136-.664-.792-1.104-1.704-1.104-.768 0-1.28.36-1.28.864 0 .392.352.6.92.728l1.936.44c1.48.336 2.376 1.16 2.376 2.36 0 1.752-1.464 2.808-3.84 2.808-2.064.008-3.512-.832-3.816-2.216zM9.472 3.632l.712-3.344c.032-.168-.112-.32-.28-.28a14.589 14.589 0 00-3.168.96C1.952 2.992-.936 6.96.28 9.832c.92 2.152 3.888 3.072 7.336 2.536l-.712 3.344c-.032.168.112.32.28.28a14.588 14.588 0 003.168-.96c4.784-2.024 7.672-5.992 6.456-8.872-.912-2.144-3.88-3.064-7.336-2.528z"/></g><defs><clipPath id="cxclip0_3199_18192"><path fill="#fff" d="M0 0h83.056v16H0z"/></clipPath></defs></svg><svg width="128" height="128" fill="none" viewBox="-4 -4 128 128" id="marketing" y="207" xmlns="http://www.w3.org/2000/svg"><path d="M78 91H65V61a3 3 0 00-3-3h-6a3 3 0 00-3 3v30h-6V32a3 3 0 00-3-3h-6a3 3 0 00-3 3v59h-6V52a3 3 0 00-3-3h-6a3 3 0 00-3 3v39H9V18a1 1 0 10-2 0v74a1 1 0 001 1h70a1 1 0 000-2zm-59 0V52a1 1 0 011-1h6a1 1 0 011 1v39h-8zm18 0V32a1 1 0 011-1h6a1 1 0 011 1v59h-8zm18 0V61a1 1 0 011-1h6a1 1 0 011 1v30h-8z" fill="#242428"/><path d="M91 103c12.15 0 22-9.85 22-22s-9.85-22-22-22-22 9.85-22 22 9.85 22 22 22z" fill="#FA2828"/><path d="M78.002 88a1 1 0 01-.71-1.71l7.998-8a.999.999 0 011.42 0l6.289 6.3 8.588-8.59h-2.59a1 1 0 010-2h4.999a.999.999 0 01.79.39.997.997 0 01.21.54V80a.998.998 0 01-1 1 1.001 1.001 0 01-.999-1v-2.59l-9.289 9.3a.999.999 0 01-1.42 0L86 80.41l-7.288 7.3a1 1 0 01-.71.29z" fill="#fff"/></svg><svg width="54" height="54" fill="none" viewBox="-4 -4 54 54" id="membership" x="486" y="523" xmlns="http://www.w3.org/2000/svg"><path d="M23 5.5A17.5 17.5 0 115.5 23 17.52 17.52 0 0123 5.5zm0-2a19.5 19.5 0 100 39 19.5 19.5 0 000-39z" fill="#242428"/><path d="M23 21.5a4 4 0 100-8 4 4 0 000 8z" stroke="#242428" stroke-width="2" stroke-miterlimit="10"/><path d="M14 32v-1a6 6 0 016-6h6a6 6 0 016 6v1" stroke="#242428" stroke-width="2" stroke-miterlimit="10" stroke-linecap="round"/></svg><svg width="24" height="24" fill="none" viewBox="-4 -4 24 24" id="minus_black" x="636" y="312" xmlns="http://www.w3.org/2000/svg"><path d="M12 7H4a1 1 0 000 2h8a1 1 0 100-2z" fill="#878D95"/></svg><svg width="24" height="24" fill="none" viewBox="-4 -4 24 24" id="minus_white" x="636" y="336" xmlns="http://www.w3.org/2000/svg"><path d="M12 7H4a1 1 0 000 2h8a1 1 0 100-2z" fill="#fff"/></svg><svg width="54" height="54" fill="none" viewBox="-4 -4 54 54" id="mobile_black" x="582" xmlns="http://www.w3.org/2000/svg"><path fill-rule="evenodd" clip-rule="evenodd" d="M11 6a1 1 0 011-1h22a1 1 0 011 1v2H11V6zM9 9V6a3 3 0 013-3h22a3 3 0 013 3v34a3 3 0 01-3 3H12a3 3 0 01-3-3V9zm2 26V10h24v25H11zm0 2v3a1 1 0 001 1h22a1 1 0 001-1v-3H11zm9 2a1 1 0 011-1h4a1 1 0 110 2h-4a1 1 0 01-1-1z" fill="#242428"/></svg><svg width="54" height="54" fill="none" viewBox="-4 -4 54 54" id="mobile_white" x="582" y="54" xmlns="http://www.w3.org/2000/svg"><path fill-rule="evenodd" clip-rule="evenodd" d="M11 6a1 1 0 011-1h22a1 1 0 011 1v2H11V6zM9 9V6a3 3 0 013-3h22a3 3 0 013 3v34a3 3 0 01-3 3H12a3 3 0 01-3-3V9zm2 26V10h24v25H11zm0 2v3a1 1 0 001 1h22a1 1 0 001-1v-3H11zm9 2a1 1 0 011-1h4a1 1 0 110 2h-4a1 1 0 01-1-1z" fill="#fff"/></svg><svg width="54" height="54" fill="none" viewBox="-4 -4 54 54" id="mypagepoint" x="582" y="108" xmlns="http://www.w3.org/2000/svg"><path d="M24.5 15H19a1 1 0 00-1 1v16.5a1 1 0 002 0V26h4.5a5.5 5.5 0 000-11zm0 9H20v-7h4.5a3.5 3.5 0 010 7z" fill="#242428"/><path d="M23 3.5a19.5 19.5 0 100 39 19.5 19.5 0 000-39zm0 37A17.5 17.5 0 1140.5 23 17.52 17.52 0 0123 40.5z" fill="#242428"/></svg><svg width="54" height="54" fill="none" viewBox="-4 -4 54 54" id="mypageticket" x="582" y="162" xmlns="http://www.w3.org/2000/svg"><path d="M41 10v7.34a6 6 0 000 11.32V36H5v-7.34a6 6 0 000-11.32V10h36zm0-2H5a2 2 0 00-2 2v8.11a1 1 0 00.83 1 4 4 0 010 7.82 1 1 0 00-.83 1V36a2 2 0 002 2h36a2 2 0 002-2v-8.11a1 1 0 00-.83-1 4 4 0 010-7.82 1 1 0 00.83-1V10a2 2 0 00-2-2z" fill="#242428"/><path d="M19 18a1 1 0 01-1-1v-3a1 1 0 012 0v3a1 1 0 01-1 1zm0 7.5a1 1 0 01-1-1v-3a1 1 0 012 0v3a1 1 0 01-1 1zm0 7.5a1 1 0 01-1-1v-3a1 1 0 012 0v3a1 1 0 01-1 1z" fill="#242428"/></svg><svg width="54" height="54" fill="none" viewBox="-4 -4 54 54" id="myticket" x="582" y="216" xmlns="http://www.w3.org/2000/svg"><path d="M42.782 12.42a1.001 1.001 0 00-.81-.42h-31.26l-.719-4.17A1 1 0 008.994 7H4a.999.999 0 00-.706 1.707A.999.999 0 004 9h4.156l3.846 22.17c.016.055.036.109.06.16.013.06.037.118.07.17.034.05.07.096.11.14a.63.63 0 00.11.13.612.612 0 00.16.09c.042.029.085.056.13.08.112.04.23.061.35.06h22.977a.998.998 0 001-.68l5.993-18a1 1 0 00-.18-.9zM35.258 30h-21.41l-2.667-16h29.402l-5.325 16zM18 34a3 3 0 100 6 3 3 0 000-6zm0 4a1 1 0 110-2 1 1 0 010 2zm12.984-4a3 3 0 100 5.999 3 3 0 000-5.999zm0 4a1 1 0 110-2 1 1 0 010 2z" fill="#242428"/><path d="M24.987 26a.998.998 0 001-1v-6a1 1 0 10-1.999 0v6a1 1 0 001 1zm5.996 0a.998.998 0 001-1v-6a1 1 0 10-1.999 0v6a1 1 0 001 1zm-11.988 0a.998.998 0 001-1v-6a1 1 0 00-1.706-.707 1 1 0 00-.293.707v6a1 1 0 001 1z" fill="#242428"/></svg><svg width="54" height="54" fill="none" viewBox="-4 -4 54 54" id="pc_black" x="582" y="270" xmlns="http://www.w3.org/2000/svg"><path d="M32.5 37h-19a1 1 0 000 2h19a1 1 0 000-2z" fill="#242428"/><path fill-rule="evenodd" clip-rule="evenodd" d="M5 10a1 1 0 011-1h34a1 1 0 011 1v16H5V10zM3 27V10a3 3 0 013-3h34a3 3 0 013 3v22a3 3 0 01-3 3H6a3 3 0 01-3-3v-5zm38 1v4a1 1 0 01-1 1H6a1 1 0 01-1-1v-4h36z" fill="#242428"/></svg><svg width="54" height="54" fill="none" viewBox="-4 -4 54 54" id="pc_white" x="582" y="324" xmlns="http://www.w3.org/2000/svg"><path d="M32.5 37h-19a1 1 0 000 2h19a1 1 0 000-2z" fill="#fff"/><path fill-rule="evenodd" clip-rule="evenodd" d="M5 10a1 1 0 011-1h34a1 1 0 011 1v16H5V10zM3 27V10a3 3 0 013-3h34a3 3 0 013 3v22a3 3 0 01-3 3H6a3 3 0 01-3-3v-5zm38 1v4a1 1 0 01-1 1H6a1 1 0 01-1-1v-4h36z" fill="#fff"/></svg><svg width="22" height="26" fill="none" viewBox="-4 -4 22 26" id="play_btn" x="506" y="497" xmlns="http://www.w3.org/2000/svg"><path d="M12.691 9.841a1 1 0 000-1.682L1.541.99A1 1 0 000 1.832v14.336a1 1 0 001.54.841l11.151-7.168z" fill="#242428"/></svg><svg width="24" height="24" fill="none" viewBox="-4 -4 24 24" id="plus_black" x="636" y="360" xmlns="http://www.w3.org/2000/svg"><path d="M12 7H9V4a1 1 0 00-2 0v3H4a1 1 0 000 2h3v3a1 1 0 102 0V9h3a1 1 0 000-2z" fill="#878D95"/></svg><svg width="24" height="24" fill="none" viewBox="-4 -4 24 24" id="plus_white" x="636" y="384" xmlns="http://www.w3.org/2000/svg"><path d="M12 7H9V4a1 1 0 00-2 0v3H4a1 1 0 000 2h3v3a1 1 0 102 0V9h3a1 1 0 000-2z" fill="#fff"/></svg><svg width="26" height="26" fill="none" viewBox="-4 -4 26 26" id="qabox" x="528" y="497" xmlns="http://www.w3.org/2000/svg"><path fill="#fff" d="M0 0h18v18H0z"/><path stroke="#DCDDE1" d="M.5.5h17v17H.5z"/><path d="M9.031 12.999a.5.5 0 100-1 .5.5 0 000 1zm-.001-1.747a.5.5 0 01-.5-.5v-.29a2.376 2.376 0 01.31-1.218 2.37 2.37 0 01.89-.909 1.54 1.54 0 00.58-.55 1.487 1.487 0 000-1.508 1.529 1.529 0 00-.54-.559 1.541 1.541 0 00-.75-.21 1.371 1.371 0 00-.76.2 1.55 1.55 0 00-.56.55 1.5 1.5 0 00-.2.749.5.5 0 01-1 0c.001-.442.118-.876.34-1.259a2.39 2.39 0 01.93-.909 2.492 2.492 0 012.51 0c.38.229.693.553.91.939a2.485 2.485 0 01-.06 2.507 2.46 2.46 0 01-.94.9 1.34 1.34 0 00-.51.519 1.457 1.457 0 00-.18.729v.3a.499.499 0 01-.47.519z" fill="#62676C"/></svg><svg width="24" height="24" fill="none" viewBox="-4 -4 24 24" id="refresh" x="636" y="408" xmlns="http://www.w3.org/2000/svg"><path d="M13.43 7.12a5.5 5.5 0 01-10 3.94m-.86-2.18a5.5 5.5 0 0110-3.94" stroke="#878D95" stroke-linecap="round" stroke-linejoin="round"/><path d="M1 7.75l1.5 1.5L4 7.75m8 .5l1.5-1.5 1.5 1.5" stroke="#878D95" stroke-linecap="round" stroke-linejoin="round"/></svg><svg width="44" height="44" fill="none" viewBox="-4 -4 44 44" id="refresh_full" x="534" y="443" xmlns="http://www.w3.org/2000/svg"><circle cx="18" cy="18" r="18" fill="#ECEDF2"/><path d="M12.43 17.15a.51.51 0 00-.71 0l-1.4 1.244a7.685 7.685 0 011.43-5.148 7.751 7.751 0 015.103-3.142 7.833 7.833 0 014.353.548 7.86 7.86 0 013.381 2.804.494.494 0 00.513.209.491.491 0 00.178-.078.502.502 0 00.14-.693 8.87 8.87 0 00-3.814-3.164 8.84 8.84 0 00-8.143.577 8.756 8.756 0 00-2.521 2.356 8.692 8.692 0 00-1.62 5.781L7.847 17.15a.5.5 0 10-.7.712l2.271 2.008a.51.51 0 00.33.13.53.53 0 00.33-.13l2.272-2.008a.512.512 0 00.08-.712zm16.4.978l-2.273-2a.491.491 0 00-.66 0l-2.274 2a.503.503 0 10.67.75l1.403-1.24a7.634 7.634 0 01-1.432 5.131 7.747 7.747 0 01-5.108 3.13 7.872 7.872 0 01-7.742-3.34.493.493 0 00-.692-.13.5.5 0 00-.14.69A8.87 8.87 0 0017.924 27a9.324 9.324 0 001.392-.11 8.762 8.762 0 005.759-3.54 8.642 8.642 0 001.622-5.772l1.473 1.3c.092.079.21.122.33.12a.473.473 0 00.37-.16.501.501 0 00-.04-.71z" fill="#242428"/></svg><svg width="40" height="40" fill="none" viewBox="-4 -4 40 40" id="refresh_reserve" x="396" y="577" xmlns="http://www.w3.org/2000/svg"><path d="M8.193 15.252a1.004 1.004 0 00-1.425.06l-1.004 1.101a10.396 10.396 0 011.315-5.275 10.13 10.13 0 015.08-4.445 9.986 9.986 0 016.696-.25 10.086 10.086 0 015.38 4.064 1.001 1.001 0 001.033.43 1.005 1.005 0 00.79-.783.999.999 0 00-.146-.748 12.035 12.035 0 00-4.541-4.07 12.076 12.076 0 00-11.808.43 12.028 12.028 0 00-4.231 4.39 12.284 12.284 0 00-1.576 6.277l-1.004-1.121A1.01 1.01 0 001 15.95c-.011.267.084.527.265.723l2.76 3.003a1.003 1.003 0 001.487 0l2.76-3.003a1.002 1.002 0 00-.08-1.421zm22.649-.21l-2.761-3.003a1.004 1.004 0 00-1.486 0l-2.76 3.003a1.001 1.001 0 00.788 1.677c.267-.012.517-.13.697-.326l1.004-1.081c.095 1.93-.357 3.85-1.305 5.536a10.13 10.13 0 01-5.08 4.444 9.986 9.986 0 01-6.696.25 10.086 10.086 0 01-5.381-4.064 1.003 1.003 0 00-1.396-.28 1.001 1.001 0 00-.28 1.381 12.123 12.123 0 006.444 4.875 12.08 12.08 0 008.032-.3 12.166 12.166 0 006.023-5.325 12.304 12.304 0 001.567-6.567l1.003 1.131a1.006 1.006 0 001.29.158 1.003 1.003 0 00.442-.997 1 1 0 00-.246-.512h.1z" fill="#fff"/></svg><svg width="24" height="24" fill="none" viewBox="-4 -4 24 24" id="search_black" x="636" y="432" xmlns="http://www.w3.org/2000/svg"><path d="M13.85 13.14l-2.13-2.128A5.46 5.46 0 0013 7.495 5.495 5.495 0 007.5 2a5.495 5.495 0 100 10.99c1.34 0 2.56-.479 3.52-1.268l2.13 2.128a.485.485 0 00.7 0c.2-.2.2-.52 0-.71zM3 7.496A4.505 4.505 0 017.5 3C9.98 3 12 5.017 12 7.495a4.505 4.505 0 01-4.5 4.497c-2.48 0-4.5-2.019-4.5-4.497z" fill="#242428"/></svg><svg width="34" height="34" fill="none" viewBox="-4 -4 34 34" id="search_box_black" x="594" y="538" xmlns="http://www.w3.org/2000/svg"><path fill="#62676C" d="M0 0h26v26H0z"/><path d="M18.85 18.14l-2.13-2.128A5.46 5.46 0 0018 12.495 5.495 5.495 0 0012.5 7a5.495 5.495 0 100 10.99c1.34 0 2.56-.479 3.52-1.268l2.13 2.128a.485.485 0 00.7 0c.2-.2.2-.52 0-.71zM8 12.496A4.505 4.505 0 0112.5 8c2.48 0 4.5 2.019 4.5 4.496a4.505 4.505 0 01-4.5 4.497c-2.48 0-4.5-2.019-4.5-4.497z" fill="#fff"/></svg><svg width="32" height="32" fill="none" viewBox="-4 -4 32 32" id="search_white" x="516" y="577" xmlns="http://www.w3.org/2000/svg"><path fill-rule="evenodd" clip-rule="evenodd" d="M4 11a7 7 0 1114 0 7 7 0 01-14 0zm7-9a9 9 0 105.618 16.032l3.675 3.675a1 1 0 001.414-1.414l-3.675-3.675A9 9 0 0011 2z" fill="#fff"/></svg><svg width="128" height="128" fill="none" viewBox="-4 -4 128 128" id="seller" x="128" y="207" xmlns="http://www.w3.org/2000/svg"><path fill-rule="evenodd" clip-rule="evenodd" d="M51 22a1 1 0 001-1v-8a1 1 0 00-2 0v8a1 1 0 001 1zm0 4a30 30 0 100 60 30 30 0 000-60zm0 58a28 28 0 110-56 28 28 0 010 56zm0-28a8 8 0 100-15.999A8 8 0 0051 56zm0-14a6 6 0 110 12 6 6 0 010-12zm-5.29 16h10.58A10.72 10.72 0 0167 68.71V70a1 1 0 01-2 0v-1.29A8.72 8.72 0 0056.29 60H45.71A8.72 8.72 0 0037 68.71V70a1 1 0 01-2 0v-1.29A10.72 10.72 0 0145.71 58zm4.583 32.293A1 1 0 0152 91v8a1 1 0 01-2 0v-8a1 1 0 01.293-.707zM94 55h-8a1 1 0 000 2h8a1 1 0 000-2zM8 55h8a1 1 0 010 2H8a1 1 0 010-2zm72.699-30.11l-5.7 5.65a1.001 1.001 0 001.094 1.637.997.997 0 00.326-.216l5.65-5.66a1 1 0 00-1.41-1.41h.04zm-60.81 60.77l5.65-5.66a1.005 1.005 0 011.42 1.42l-5.66 5.65a1 1 0 01-1.41 0 1 1 0 010-1.41zM25.541 32a1 1 0 00.71.29 1 1 0 00.75-1.71l-5.66-5.65a1 1 0 00-1.41 1.41l5.61 5.66zM75.75 79.705c.266 0 .522.106.71.294l5.65 5.66a1 1 0 010 1.41 1 1 0 01-1.41 0l-5.66-5.65a1.004 1.004 0 01.71-1.714z" fill="#242428"/><path d="M91 103c12.15 0 22-9.85 22-22s-9.85-22-22-22-22 9.85-22 22 9.85 22 22 22z" fill="#FA2828"/><path d="M91 94.5A13.5 13.5 0 11104.5 81 13.517 13.517 0 0191 94.5zm0-25A11.5 11.5 0 10102.5 81 11.511 11.511 0 0091 69.5z" fill="#fff"/><path fill-rule="evenodd" clip-rule="evenodd" d="M84.684 76.052a1 1 0 011.265.632l1.492 4.478.015.044.544 1.632 2.051-6.154a1 1 0 011.898 0L94 82.838l.544-1.632.015-.044 1.492-4.478a1 1 0 011.898.633L96.887 80.5H98.5a1 1 0 110 2h-2.28l-1.271 3.817a1 1 0 01-1.898 0L91 80.163l-2.051 6.154a1 1 0 01-1.898 0L85.78 82.5H83.5a1 1 0 110-2h1.613l-1.062-3.183a1 1 0 01.633-1.265z" fill="#fff"/></svg><svg width="128" height="128" fill="none" viewBox="-4 -4 128 128" id="service" x="256" y="207" xmlns="http://www.w3.org/2000/svg"><path d="M94 17H10a3 3 0 00-3 3v58a3 3 0 003 3h84a3 3 0 003-3V20a3 3 0 00-3-3zm-84 2h84a1 1 0 011 1v44H9V20a1 1 0 011-1zm84 60H10a1 1 0 01-1-1V66h86v12a1 1 0 01-1 1zM75 93H29a1 1 0 010-2h46a1 1 0 010 2z" fill="#242428"/><path d="M91 103c12.15 0 22-9.85 22-22s-9.85-22-22-22-22 9.85-22 22 9.85 22 22 22z" fill="#FA2828"/><path d="M100 72h-6.59l2.3-2.29a1.004 1.004 0 10-1.42-1.42L91 71.59l-3.29-3.3a1.004 1.004 0 10-1.42 1.42l2.3 2.29H82a3 3 0 00-3 3v3a3 3 0 001.5 2.58V91a3 3 0 003 3h15a2.998 2.998 0 003-3V80.58A3 3 0 00103 78v-3a2.999 2.999 0 00-3-3zm1 3v3a.998.998 0 01-1 1h-8v-5h8a1 1 0 011 1zm-20 0a1 1 0 011-1h8v5h-8a1 1 0 01-1-1v-3zm1.5 16V81H90v11h-6.5a1 1 0 01-1-1zm17 0a1 1 0 01-1 1H92V81h7.5v10z" fill="#fff"/></svg><svg width="80" height="80" fill="none" viewBox="-4 -4 80 80" id="swiper_next" x="240" y="443" xmlns="http://www.w3.org/2000/svg"><g filter="url(#dvfilter0_d_3147_66554)" opacity=".5"><path fill-rule="evenodd" clip-rule="evenodd" d="M22.293 5.293a1 1 0 011.414 0l30 30a1 1 0 010 1.414l-30 30a1 1 0 01-1.414-1.414L51.586 36 22.293 6.707a1 1 0 010-1.414z" fill="#fff"/></g><defs><filter id="dvfilter0_d_3147_66554" x="18" y="2" width="40" height="70" filterUnits="userSpaceOnUse" color-interpolation-filters="sRGB"><feFlood flood-opacity="0" result="BackgroundImageFix"/><feColorMatrix in="SourceAlpha" values="0 0 0 0 0 0 0 0 0 0 0 0 0 0 0 0 0 0 127 0" result="hardAlpha"/><feOffset dy="1"/><feGaussianBlur stdDeviation="2"/><feComposite in2="hardAlpha" operator="out"/><feColorMatrix values="0 0 0 0 0 0 0 0 0 0 0 0 0 0 0 0 0 0 0.3 0"/><feBlend in2="BackgroundImageFix" result="effect1_dropShadow_3147_66554"/><feBlend in="SourceGraphic" in2="effect1_dropShadow_3147_66554" result="shape"/></filter></defs></svg><svg width="80" height="80" fill="none" viewBox="-4 -4 80 80" id="swiper_next_active" x="320" y="443" xmlns="http://www.w3.org/2000/svg"><g filter="url(#dwfilter0_d_2971_72045)"><path fill-rule="evenodd" clip-rule="evenodd" d="M22.293 5.293a1 1 0 011.414 0l30 30a1 1 0 010 1.414l-30 30a1 1 0 01-1.414-1.414L51.586 36 22.293 6.707a1 1 0 010-1.414z" fill="#fff"/></g><defs><filter id="dwfilter0_d_2971_72045" x="18" y="2" width="40" height="70" filterUnits="userSpaceOnUse" color-interpolation-filters="sRGB"><feFlood flood-opacity="0" result="BackgroundImageFix"/><feColorMatrix in="SourceAlpha" values="0 0 0 0 0 0 0 0 0 0 0 0 0 0 0 0 0 0 127 0" result="hardAlpha"/><feOffset dy="1"/><feGaussianBlur stdDeviation="2"/><feComposite in2="hardAlpha" operator="out"/><feColorMatrix values="0 0 0 0 0 0 0 0 0 0 0 0 0 0 0 0 0 0 0.3 0"/><feBlend in2="BackgroundImageFix" result="effect1_dropShadow_2971_72045"/><feBlend in="SourceGraphic" in2="effect1_dropShadow_2971_72045" result="shape"/></filter></defs></svg><svg width="80" height="80" fill="none" viewBox="-4 -4 80 80" id="swiper_next_disabled" x="400" y="443" xmlns="http://www.w3.org/2000/svg"><path fill-rule="evenodd" clip-rule="evenodd" d="M22.293 5.293a1 1 0 011.414 0l30 30a1 1 0 010 1.414l-30 30a1 1 0 01-1.414-1.414L51.586 36 22.293 6.707a1 1 0 010-1.414z" fill="#A7ACB6" opacity=".5"/></svg><svg width="54" height="54" fill="none" viewBox="-4 -4 54 54" id="ticket_black" x="582" y="378" xmlns="http://www.w3.org/2000/svg"><path d="M41 10v7.34a6 6 0 000 11.32V36H5v-7.34a6 6 0 000-11.32V10h36zm0-2H5a2 2 0 00-2 2v8.11a1 1 0 00.83 1 4 4 0 010 7.82 1 1 0 00-.83 1V36a2 2 0 002 2h36a2 2 0 002-2v-8.11a1 1 0 00-.83-1 4 4 0 010-7.82 1 1 0 00.83-1V10a2 2 0 00-2-2z" fill="#242428"/><path d="M26.7 30a1.604 1.604 0 01-1.003-.321l-2.677-2.005-2.677 2.005a1.604 1.604 0 01-2.476-1.795l1.082-3.228-2.306-1.725a1.594 1.594 0 01.025-2.577c.273-.196.602-.301.938-.3h2.887l1.003-3.008a1.604 1.604 0 013.008 0l1.002 3.008h2.888a1.604 1.604 0 011.524 1.093 1.593 1.593 0 01-.561 1.784l-2.306 1.725 1.082 3.238a1.584 1.584 0 01-.581 1.795 1.564 1.564 0 01-.852.31zm-3.63-4.562c.216-.003.427.064.602.19l2.246 1.674-.913-2.697a1.002 1.002 0 01.351-1.122l1.905-1.424h-2.386a1.003 1.003 0 01-1.003-.682l-.852-2.546-.852 2.546a1.003 1.003 0 01-1.003.682H18.78l1.905 1.424a1.003 1.003 0 01.35 1.122l-.911 2.697 2.245-1.674c.202-.149.453-.217.702-.19z" fill="#242428"/></svg><svg width="54" height="54" fill="none" viewBox="-4 -4 54 54" id="ticket_white" x="582" y="432" xmlns="http://www.w3.org/2000/svg"><path d="M26.7 30a1.604 1.604 0 01-1.003-.321l-2.677-2.005-2.677 2.005a1.604 1.604 0 01-2.476-1.795l1.082-3.228-2.306-1.725a1.594 1.594 0 01.025-2.577c.273-.196.602-.301.938-.3h2.887l1.003-3.008a1.604 1.604 0 013.008 0l1.002 3.008h2.888a1.604 1.604 0 011.524 1.093 1.593 1.593 0 01-.561 1.784l-2.306 1.725 1.082 3.238a1.584 1.584 0 01-.581 1.795 1.564 1.564 0 01-.852.31zm-3.63-4.562c.216-.003.427.064.602.19l2.246 1.674-.913-2.697a1.002 1.002 0 01.351-1.122l1.905-1.424h-2.386a1.003 1.003 0 01-1.003-.682l-.852-2.546-.852 2.546a1.003 1.003 0 01-1.003.682H18.78l1.905 1.424a1.003 1.003 0 01.35 1.122l-.911 2.697 2.245-1.674c.202-.149.453-.217.702-.19z" fill="#fff"/><path d="M41 10v7.34a6 6 0 000 11.32V36H5v-7.34a6 6 0 000-11.32V10h36zm0-2H5a2 2 0 00-2 2v8.11a1 1 0 00.83 1 4 4 0 010 7.82 1 1 0 00-.83 1V36a2 2 0 002 2h36a2 2 0 002-2v-8.11a1 1 0 00-.83-1 4 4 0 010-7.82 1 1 0 00.83-1V10a2 2 0 00-2-2z" fill="#fff"/></svg><svg width="24" height="24" fill="none" viewBox="-4 -4 24 24" id="today_open" x="636" y="456" xmlns="http://www.w3.org/2000/svg"><circle cx="8" cy="8" r="8" fill="#fff"/><path d="M11 5v6L5 5v6" stroke="#FA2828" stroke-width="2" stroke-linecap="round" stroke-linejoin="round"/></svg><svg width="26" height="26" fill="none" viewBox="-4 -4 26 26" id="twiiter" x="554" y="497" xmlns="http://www.w3.org/2000/svg"><path d="M13.601 2h2.453l-5.36 5.93L17 16h-4.937l-3.867-4.894L3.77 16H1.316l5.733-6.343L1 2h5.063l3.495 4.473L13.601 2zm-.861 12.579h1.36L5.323 3.347H3.865l8.875 11.232z" fill="#000"/></svg><svg width="98" height="23" fill="none" viewBox="-4 -4 98 23" id="vip_gold" x="108" y="357" xmlns="http://www.w3.org/2000/svg"><path d="M0 0h90v14H0z"/><path d="M35 3.356l.96 3.04 3.04.02-2.46 1.9.94 3.04L35 9.496l-2.48 1.86.94-3.04-2.46-1.9 3.04-.02.96-3.04zm-30.849 11H7.32l4.086-13.32H8.687L6.96 7.516c-.396 1.494-.684 2.808-1.116 4.32h-.09c-.414-1.512-.72-2.826-1.134-4.32l-1.746-6.48H.065l4.086 13.32zm8.085 0H14.9V1.036h-2.664v13.32zm5.221 0h2.664V9.622h1.782c2.862 0 5.13-1.35 5.13-4.392 0-3.168-2.268-4.194-5.202-4.194h-4.374v13.32zm2.664-6.84V3.16h1.512c1.836 0 2.808.504 2.808 2.07 0 1.512-.882 2.286-2.718 2.286h-1.602zm28.731 7.092c1.728 0 3.096-.63 3.942-1.494V7.84H48.69v.918h3.042V12.7c-.576.576-1.656.936-2.772.936-2.97 0-4.68-2.304-4.68-5.868 0-3.564 1.836-5.796 4.752-5.796 1.404 0 2.304.612 2.97 1.314l.63-.702C51.93 1.828 50.796 1 49.014 1c-3.474 0-5.85 2.61-5.85 6.786 0 4.194 2.304 6.822 5.688 6.822zm12.58 0c3.186 0 5.454-2.682 5.454-6.84C66.886 3.61 64.618 1 61.432 1s-5.436 2.592-5.436 6.768c0 4.158 2.25 6.84 5.436 6.84zm0-.972c-2.592 0-4.32-2.304-4.32-5.868 0-3.564 1.728-5.796 4.32-5.796 2.592 0 4.338 2.232 4.338 5.796s-1.746 5.868-4.338 5.868zm9.172.72h7.038v-.918h-5.976V1.234h-1.062v13.122zm10.124 0h3.115c4.013 0 5.975-2.574 5.975-6.588 0-4.032-1.962-6.534-6.011-6.534h-3.079v13.122zm1.063-.9V2.152h1.907c3.457 0 5.005 2.196 5.005 5.616 0 3.402-1.549 5.688-5.005 5.688h-1.907z" fill="#AD8B46"/></svg><svg width="139" height="23" fill="none" viewBox="-4 -4 139 23" id="vip_platinum" x="220" y="166" xmlns="http://www.w3.org/2000/svg"><path d="M35 3l.96 3.04 3.04.02-2.46 1.9.94 3.04L35 9.14 32.52 11l.94-3.04L31 6.06l3.04-.02L35 3zM4.152 14H7.32L11.406.68H8.688L6.96 7.16c-.396 1.494-.684 2.808-1.116 4.32h-.09c-.414-1.512-.72-2.826-1.134-4.32L2.874.68H.066L4.152 14zm8.085 0H14.9V.68h-2.664V14zm5.221 0h2.664V9.266h1.782c2.862 0 5.13-1.35 5.13-4.392 0-3.168-2.268-4.194-5.202-4.194h-4.374V14zm2.664-6.84V2.804h1.512c1.836 0 2.808.504 2.808 2.07 0 1.512-.882 2.286-2.718 2.286h-1.602zM44.297 14h1.062V8.456h2.411c2.916 0 4.716-1.242 4.716-3.87 0-2.736-1.835-3.708-4.787-3.708h-3.402V14zm1.062-6.444v-5.76h2.105c2.629 0 3.907.648 3.907 2.79 0 2.088-1.242 2.97-3.835 2.97h-2.178zM56.038 14h7.038v-.918H57.1V.878h-1.062V14zm8.465 0h1.098l2.574-7.632a110.48 110.48 0 001.44-4.518h.072c.468 1.584.9 2.97 1.422 4.518L73.665 14H74.8L70.21.878h-1.116L64.503 14zm2.16-4.392h5.922v-.882h-5.922v.882zM79.428 14h1.098V1.814h4.122V.878h-9.342v.936h4.122V14zm8.442 0h1.062V.878H87.87V14zm5.624 0h1.008V6.152c0-1.314-.072-2.538-.126-3.816h.072l1.476 2.646L101.27 14h1.134V.878h-1.044v7.776c0 1.296.09 2.61.162 3.888h-.09l-1.458-2.628L94.61.878h-1.116V14zm17.875.252c2.34 0 4.5-1.242 4.5-5.364V.878h-1.044v7.938c0 3.42-1.62 4.464-3.456 4.464-1.836 0-3.402-1.044-3.402-4.464V.878h-1.08v8.01c0 4.122 2.124 5.364 4.482 5.364zm8.983-.252h.99V5.684c0-1.08-.072-2.52-.144-3.618h.072L122.296 5l2.772 7.596h.882L128.704 5l1.008-2.934h.09c-.072 1.098-.144 2.538-.144 3.618V14h1.044V.878h-1.458l-2.682 7.56c-.324.936-.648 1.908-.99 2.862h-.072c-.342-.954-.684-1.926-1.026-2.862l-2.682-7.56h-1.44V14z" fill="#091E78"/></svg><svg width="108" height="22" fill="none" viewBox="-4 -4 108 22" id="vip_silver" x="108" y="335" xmlns="http://www.w3.org/2000/svg"><path d="M35 2.356l.96 3.04 3.04.02-2.46 1.9.94 3.04L35 8.496l-2.48 1.86.94-3.04-2.46-1.9 3.04-.02.96-3.04zm-30.848 11H7.32L11.406.036H8.688L6.96 6.516c-.396 1.494-.684 2.808-1.116 4.32h-.09c-.414-1.512-.72-2.826-1.134-4.32L2.874.036H.066l4.086 13.32zm8.085 0H14.9V.036h-2.664v13.32zm5.221 0h2.664V8.622h1.782c2.862 0 5.13-1.35 5.13-4.392 0-3.168-2.268-4.194-5.202-4.194h-4.374v13.32zm2.664-6.84V2.16h1.512c1.836 0 2.808.504 2.808 2.07 0 1.512-.882 2.286-2.718 2.286h-1.602zm27.74 7.092c2.592 0 4.248-1.548 4.248-3.582 0-1.998-1.242-2.826-2.754-3.492l-1.944-.864c-.954-.414-2.232-.954-2.232-2.466 0-1.35 1.098-2.232 2.79-2.232 1.278 0 2.304.54 3.078 1.314l.612-.702A5.069 5.069 0 0047.97 0c-2.25 0-3.888 1.35-3.888 3.294s1.494 2.772 2.664 3.294l1.944.864c1.296.576 2.34 1.062 2.34 2.664 0 1.494-1.206 2.52-3.15 2.52-1.494 0-2.862-.684-3.798-1.746l-.684.738c1.062 1.17 2.574 1.98 4.464 1.98zm7.706-.252h1.062V.234h-1.062v13.122zm5.624 0h7.038v-.918h-5.976V.234h-1.062v13.122zm11.06 0h1.188L77.724.234h-1.098l-2.358 7.542c-.486 1.602-.846 2.808-1.368 4.392h-.072c-.54-1.584-.882-2.79-1.368-4.392L69.102.234h-1.134l4.284 13.122zm8.168 0h7.453v-.918h-6.39V6.876h5.202V5.94h-5.202V1.17h6.192V.234H80.42v13.122zm11.04 0h1.061V7.434h2.754c2.628 0 4.374-1.242 4.374-3.69 0-2.538-1.746-3.51-4.374-3.51H91.46v13.122zm1.061-6.804v-5.4h2.52c2.25 0 3.51.684 3.51 2.592 0 1.89-1.26 2.808-3.51 2.808h-2.52zm6.192 6.804h1.224L96.013 6.75l-.972.396 3.672 6.21z" fill="#828282"/></svg><svg width="210" height="140" fill="none" viewBox="-4 -4 210 140" id="wait_ticket" y="31" xmlns="http://www.w3.org/2000/svg"><path d="M143.981 48.362a15 15 0 0110.41-17 2 2 0 001.43-2.26l-3.84-21.79a3.999 3.999 0 00-4.63-3.24l-128 22.57a4 4 0 00-3.24 4.63l3.84 21.79a2 2 0 002.11 1.64 15 15 0 015.18 29.34 2 2 0 00-1.43 2.26l3.84 21.79a4.003 4.003 0 004.63 3.24l128-22.57a4.003 4.003 0 003.24-4.63l-3.84-21.79a1.999 1.999 0 00-2.11-1.64 15 15 0 01-15.59-12.34z" fill="#fff"/><path d="M116.989 29.742a2.001 2.001 0 01-2-1.66l-1.39-7.88a1.999 1.999 0 013.94-.69l1.39 7.88a2.002 2.002 0 01-1.94 2.35zm3.299 18.709a2.002 2.002 0 01-2-1.65l-1.39-7.88a2.01 2.01 0 01.33-1.495 1.987 1.987 0 011.29-.825 2.001 2.001 0 012.32 1.62l1.39 7.88a2.002 2.002 0 01-1.94 2.35zm3.293 18.711a2.002 2.002 0 01-2-1.65l-1.39-7.88a1.991 1.991 0 01.329-1.495 2.004 2.004 0 012.786-.495 1.99 1.99 0 01.825 1.29l1.39 7.88a2.002 2.002 0 01-1.94 2.35zm3.301 18.709a2.002 2.002 0 01-2-1.65l-1.39-7.88a2.003 2.003 0 011.62-2.32 2 2 0 012.32 1.62l1.39 7.88a2.002 2.002 0 01-1.94 2.35z" fill="#242428"/><path d="M19.32 26.68a4 4 0 00-3.24 4.63l3.84 21.79a2 2 0 002.11 1.64 15 15 0 015.18 29.34 2 2 0 00-1.43 2.26l3.84 21.791a3.998 3.998 0 004.63 3.24l75.83-13.37-14.93-84.69-75.83 13.37z" fill="#FA2828"/><path d="M33.56 113.441a5.998 5.998 0 01-5.91-5l-3.85-21.75a4 4 0 012.82-4.53 13 13 0 00-4.49-25.42 4 4 0 01-4.19-3.29l-3.84-21.79a5.998 5.998 0 014.86-7l128-22.57a6 6 0 016.95 4.86l3.84 21.79a4 4 0 01-2.82 4.53 12.999 12.999 0 004.49 25.42 3.997 3.997 0 014.19 3.29l3.84 21.79c.144.78.132 1.58-.034 2.354a6.01 6.01 0 01-4.826 4.647l-128 22.569c-.34.067-.684.101-1.03.1zm-10.7-60.71a17 17 0 014.93 33.26l3.8 21.79a2.006 2.006 0 00.824 1.291 2 2 0 001.496.329l128-22.57a1.994 1.994 0 001.291-.824 1.998 1.998 0 00.329-1.496l-3.84-21.78a16.998 16.998 0 01-17.701-14.001 16.998 16.998 0 0111.801-19.24l-3.8-21.79a1.993 1.993 0 00-.824-1.29 2.009 2.009 0 00-1.496-.33l-128 22.57a2.001 2.001 0 00-1.62 2.32l3.84 21.78.97-.02z" fill="#242428"/><path d="M171 85a14.999 14.999 0 0113.2-14.89 2.002 2.002 0 001.8-2V46a3.997 3.997 0 00-4-4H52a4 4 0 00-4 4v22.12a2 2 0 001.8 2 15 15 0 010 29.78 2 2 0 00-1.8 2V124a3.998 3.998 0 004 4h130a3.995 3.995 0 002.828-1.172A3.995 3.995 0 00186 124v-22.12a1.996 1.996 0 00-1.8-2A15 15 0 01171 85z" fill="#fff"/><path d="M182 130H52a6 6 0 01-6-6v-22.12a4 4 0 013.56-4 13 13 0 000-25.82 4 4 0 01-3.56-4V46a6 6 0 016-6h130a6.003 6.003 0 016 6v22.12a3.997 3.997 0 01-3.56 4 12.999 12.999 0 00-8.19 21.546 12.998 12.998 0 008.19 4.274 3.999 3.999 0 013.56 4V124a6.003 6.003 0 01-1.757 4.243A6.003 6.003 0 01182 130zM52 44a2 2 0 00-2 2v22.12a17 17 0 010 33.76V124a2 2 0 002 2h130a1.999 1.999 0 002-2v-22.12A16.997 16.997 0 01169.016 85 16.997 16.997 0 01184 68.12V46a2 2 0 00-2-2H52z" fill="#242428"/><path d="M148 62a2 2 0 01-2-2v-8a2 2 0 014 0v8a2 2 0 01-2 2zm0 19a2 2 0 01-2-2v-8a2 2 0 014 0v8a2 2 0 01-2 2zm0 19a2 2 0 01-2-2v-8a2 2 0 014 0v8a2 2 0 01-2 2zm0 19a2 2 0 01-2-2v-8a2 2 0 014 0v8a2 2 0 01-2 2z" fill="#242428"/><path d="M103 63l7.11 14.49L126 79.81l-11.5 11.27 2.72 15.92L103 99.49 88.78 107l2.72-15.92L80 79.81l15.89-2.32L103 63z" fill="#FFC32E"/></svg><svg width="40" height="40" fill="none" viewBox="-4 -4 40 40" id="zoom_reserve" x="436" y="577" xmlns="http://www.w3.org/2000/svg"><path d="M28.704 27.285l-4.548-4.548a11.995 11.995 0 10-1.42 1.42l4.549 4.547a1 1 0 001.42 0 .998.998 0 000-1.42zM5.004 15a9.995 9.995 0 1119.992 0 9.995 9.995 0 01-19.991 0z" fill="#fff"/><path d="M20.003 14.003h-4v-4a1 1 0 10-2 0v4h-4a1 1 0 100 2h4v4a1 1 0 002 0v-4h4a1 1 0 000-2z" fill="#fff"/></svg><svg width="40" height="40" fill="none" viewBox="-4 -4 40 40" id="zoomout_reserve" x="476" y="577" xmlns="http://www.w3.org/2000/svg"><path d="M20.003 14.5h-10a1 1 0 100 2h10a1 1 0 000-2z" fill="#fff"/><path d="M28.704 27.285l-4.548-4.548a11.995 11.995 0 10-1.42 1.42l4.549 4.547a1 1 0 001.42 0 .998.998 0 000-1.42zM5.004 15a9.995 9.995 0 1119.992 0 9.995 9.995 0 01-19.991 0z" fill="#fff"/></svg></svg>